<svg width="273" height="148" fill="none" xmlns="http://www.w3.org/2000/svg"><g clip-path="url(#a)"><path fill-rule="evenodd" clip-rule="evenodd" d="M176.238 72.842v53.899c0 8.38-7.124 15.234-15.829 15.234H22.547c-8.705 0-15.83-6.854-15.83-15.234V72.842a16.357 16.357 0 0 0 6.077 6.56 16.466 16.466 0 0 0 8.636 2.403h140.095a16.457 16.457 0 0 0 8.637-2.4 16.344 16.344 0 0 0 6.076-6.563Z" fill="#B2B4B5"/><path fill-rule="evenodd" clip-rule="evenodd" d="M169.87 85.175v39.768c0 6.704-6.537 12.183-14.532 12.183H28.782c-8.005.056-14.533-5.47-14.533-12.183V84.968c5.118 2.335 6.112 4.01 13.501 4.01H156.37c5.942 0 9.622.406 13.501-3.803ZM26.454 31.502h132.347a15.641 15.641 0 0 1 10.988 4.55 15.489 15.489 0 0 1 4.566 10.937v22.238c0 4.076-4.144 7.805-6.755 10.582H16.52c-4.41-2.071-5.677-6.487-5.677-10.573V46.99a15.486 15.486 0 0 1 4.586-10.957 15.641 15.641 0 0 1 11.025-4.53Z" fill="#EAEAEC"/><path fill-rule="evenodd" clip-rule="evenodd" d="M155.13 32.735h7.474a15.633 15.633 0 0 1 10.988 4.544 15.477 15.477 0 0 1 4.567 10.934V70.46c0 4.077-7.333 7.805-9.944 10.573h-1.628a15.273 15.273 0 0 0 4.097-10.573V48.213a15.485 15.485 0 0 0-4.569-10.93 15.643 15.643 0 0 0-10.985-4.548Z" fill="#B2B4B5"/><path fill-rule="evenodd" clip-rule="evenodd" d="M22.32 26.493h138.638c8.865 0 16.084 6.967 16.084 15.478v7.193c0-8.473-7.247-15.478-16.084-15.478H29.699c-8.865 0-16.084 6.967-16.084 15.478V71.41c0 2.317.54 4.602 1.58 6.675a15.56 15.56 0 0 1-6.486-5.65 15.452 15.452 0 0 1-2.474-8.218V41.971c-.028-8.511 7.22-15.478 16.085-15.478Z" fill="#E59A24"/><path d="M176.626 118.08v9.857a15.722 15.722 0 0 1-4.649 11.107 15.878 15.878 0 0 1-11.171 4.606H23.285a15.876 15.876 0 0 1-11.128-4.629 15.721 15.721 0 0 1-4.626-11.084v-27.086m0-5.263v-4.152m0-5.649V72.305a16.258 16.258 0 0 0 5.998 6.728 16.37 16.37 0 0 0 8.677 2.518h139.745a16.37 16.37 0 0 0 8.677-2.518 16.263 16.263 0 0 0 5.998-6.728v36.097" stroke="#3F4042" stroke-width="2.45" stroke-miterlimit="12.75" stroke-linecap="round"/><path d="M1 144h267" stroke="#3F4042" stroke-width="2.45" stroke-linecap="round" stroke-linejoin="round"/><path fill-rule="evenodd" clip-rule="evenodd" d="M65.246 2.551h52.833c3.073.01 6.018 1.23 8.191 3.392a11.552 11.552 0 0 1 3.408 8.15v11.553h-11.259v-6.704a7.702 7.702 0 0 0-2.272-5.44 7.777 7.777 0 0 0-5.467-2.26H72.001a7.778 7.778 0 0 0-5.467 2.26 7.7 7.7 0 0 0-2.272 5.44v6.704H53.656V14.103a11.551 11.551 0 0 1 3.402-8.153 11.666 11.666 0 0 1 8.188-3.399Z" fill="#E59A24"/><path d="M64.584 19.602H53.362v6.213h11.222v-6.213ZM129.82 19.677h-11.524v6.214h11.524v-6.214Z" fill="#fff"/><path d="M102.524 11.25H72.096a7.778 7.778 0 0 0-5.467 2.262 7.7 7.7 0 0 0-2.272 5.44v6.703H53.75V14.103a11.551 11.551 0 0 1 3.409-8.16 11.667 11.667 0 0 1 8.2-3.392h52.871c3.073.01 6.018 1.23 8.191 3.392a11.553 11.553 0 0 1 3.409 8.15v11.553h-11.316v-6.704a7.699 7.699 0 0 0-2.273-5.44 7.777 7.777 0 0 0-5.467-2.26" stroke="#3F4042" stroke-width="2.45" stroke-miterlimit="12.75" stroke-linecap="round"/><path d="M162.245 26.493H22.461c-8.972 0-16.245 7.238-16.245 16.165v23.227c0 8.927 7.273 16.165 16.245 16.165h139.784c8.972 0 16.245-7.238 16.245-16.165V42.657c0-8.928-7.273-16.165-16.245-16.165Z" stroke="#3F4042" stroke-width="2.45" stroke-miterlimit="22.93"/><path d="M53.883 44.099H81.17M34.137 44.268h6.992" stroke="#fff" stroke-width="4.25" stroke-miterlimit="16.38" stroke-linecap="round"/><path fill-rule="evenodd" clip-rule="evenodd" d="M34.26 69.933c3.784 3.587 7.408 8.19 11.628 11.975.36 5.178-.019 9.839 2.744 12.983l53.097 44.25 30.911-32.905-38.726-35.964c-4.324-1.535-9.707-10.959-26.265-9.547l-10.71-11.1-22.68 20.308Z" fill="#FDD6C1"/><path fill-rule="evenodd" clip-rule="evenodd" d="m83.26 59.313 33.021 5.564a4.625 4.625 0 0 1 3.449 2.21 4.595 4.595 0 0 1 .335 4.07c-.547 1.49-.915 2.382-2.27 3.22-1.355.838-3.145.547-4.731.375l-35.48-4.141a4.65 4.65 0 0 1-1.987-.706 4.597 4.597 0 0 1-1.797-5.584c.548-1.489.442-3.23 1.797-4.067 1.354-.836 6.079-1.114 7.664-.941Z" fill="#FDD6C1"/><path d="m102.732 140.581-51.82-44.842c-5.374-6.308-4.021-8.257-4.38-13.435L35.006 69.669m78.029-6.044L88.9 59.36c-8.667-1.054-12.206.094-21.213 1.883L57.005 50.52" stroke="#3F4042" stroke-width="2.45" stroke-miterlimit="12.75" stroke-linecap="round"/><path fill-rule="evenodd" clip-rule="evenodd" d="M131.022 55.877c-5.336 4-7.494 7.089-12.65 8.388-.142 0 .842.085.691.123 5.355 5.281.331 10.732-6.623 10.987-23.03-.528-9.878-6.713-50.95 31.068-1.448 1.102-3.094 1.789-3.785 3.503a6.557 6.557 0 0 0-.501 2.494c0 3.456 2.535 6.365 5.724 6.308a16.767 16.767 0 0 0 2.659-.48c.397 0 .53.17.369.669a6.338 6.338 0 0 0-.947 3.201c0 2.278 3.738 6.129 5.734 6.11 1.996-.019 2.839-.631 3.293-.358.454.273-.729 1.742-.738 2.825 0 2.155 3.784 6.1 5.724 6.307 4.144.443 3.974-1.459 3.17 2.467-.265 1.337 2.535 6.28 5.733 6.308a6.033 6.033 0 0 0 1.098-.104l2.29-1.045c.287-.219.552-.465.794-.734l45.415-41.773c4.929-3.427 4.57-14.217 5.346-16.203l8.581-9.293-20.399-20.797-.028.029Z" fill="#F7B698"/><path d="M114.789 63.033a1.224 1.224 0 1 0-.687 2.352l.687-2.352Zm3.129 2.258-.772.951.064.053.071.043.637-1.047Zm-3.444 9.067.039-1.225h-.002l-.037 1.225ZM97.822 74l-.763-.958-.033.025-.03.028.826.905ZM80.917 87.486a1.225 1.225 0 1 0 1.64 1.819l-1.64-1.82Zm-1.914 3.366.825.905a1.225 1.225 0 0 0-1.648-1.812l.823.907Zm-5.677 5.178-.834-.897a1.225 1.225 0 0 0 1.66 1.803l-.826-.906Zm-1.874 3.507a1.225 1.225 0 1 0-1.664-1.798l1.664 1.798Zm-9.669 7.443.746.972.048-.037.044-.041-.838-.894Zm-3.785 3.53-1.133-.463-.004.01 1.138.453Zm-.482 2.495-1.225-.003v.003h1.225Zm5.79 6.261.033 1.225.07-.002.07-.01-.173-1.213Zm3.085-.715v-1.225h-.194l-.184.06.378 1.165Zm-.066.885 1.05.63.074-.124.044-.137-1.168-.369Zm-.9 3.21-1.224-.006v.006h1.225Zm14.202 14.198-.118-1.22-.008.001-.009.001.135 1.218Zm3.132 2.975-1.205-.222v.002l1.205.22Zm5.781 6.26.002-1.225h-.002v1.225Zm1.097-.113.252 1.199.139-.029.127-.059-.517-1.111Zm2.28-1.063.519 1.11.118-.056.105-.079-.741-.975Zm.786-.735-.837-.894-.046.043-.04.047.923.804Zm45.036-42.169-.779-.944-.03.024-.028.026.837.894Zm2.252-2.476-.964-.755-.026.034-.024.035 1.014.686Zm4.146-13.256a1.225 1.225 0 0 0-2.292-.865l2.292.865Zm1.637-5.683a1.225 1.225 0 1 0 1.756 1.708l-1.756-1.708Zm6.591-3.263a1.225 1.225 0 1 0-1.756-1.708l1.756 1.708Zm-20.714-20.499a1.224 1.224 0 1 0-1.486-1.948l1.486 1.948Zm-14.317 7.455a1.225 1.225 0 0 0 1.224 2.123l-1.224-2.123Zm-3.232 1.108c.335.097.677.158.972.206.317.051.574.089.844.144.52.106.909.249 1.228.507l1.544-1.902c-.76-.617-1.592-.865-2.281-1.006-.334-.068-.678-.118-.941-.161a5.832 5.832 0 0 1-.679-.14l-.687 2.352Zm3.179.953c1.717 1.044 2.081 2.72 1.546 4.152-.544 1.455-2.053 2.716-4.314 2.643l-.079 2.45c3.312.105 5.777-1.797 6.688-4.235.919-2.461.219-5.408-2.568-7.103l-1.273 2.093Zm-2.77 6.795c-3.365-.103-7.473-.25-10.756-.341a209.119 209.119 0 0 0-4.154-.085c-.528-.004-.974-.001-1.303.01a6.365 6.365 0 0 0-.45.03 2.255 2.255 0 0 0-.237.037 1.292 1.292 0 0 0-.552.257l1.526 1.917a1.153 1.153 0 0 1-.445.219c-.035.007-.05.008-.025.005.043-.005.13-.01.27-.016.277-.01.682-.013 1.2-.01 1.033.007 2.461.04 4.102.085 3.283.092 7.359.237 10.749.341l.075-2.449Zm-17.515-.038c-3.325 3.035-12.705 11.346-16.08 14.39l1.642 1.82c3.324-3 12.772-11.372 16.09-14.4l-1.652-1.81ZM78.18 89.945c-2.239 2.03-4.1 3.713-5.688 5.188l1.668 1.795c1.573-1.462 3.42-3.131 5.666-5.168l-1.646-1.815Zm-4.028 6.99 5.676-5.178-1.65-1.81-5.677 5.178 1.65 1.81Zm-4.364.804c-2.83 2.619-4.676 4.444-8.842 8.347l1.675 1.788c4.235-3.968 5.984-5.702 8.831-8.337l-1.664-1.798Zm-8.75 8.269c-.329.252-.671.484-1.045.737-.363.246-.76.514-1.137.809-.766.598-1.53 1.362-1.992 2.493l2.269.927c.238-.583.642-1.029 1.232-1.49.3-.235.628-.458 1.001-.71.362-.246.767-.519 1.163-.822l-1.492-1.944Zm-4.177 4.049a7.997 7.997 0 0 0-.57 2.945l2.45.006c.002-.7.136-1.393.395-2.044l-2.275-.907Zm-.57 2.948c0 4.008 3.031 7.592 7.048 7.486l-.065-2.449c-2.38.063-4.533-2.134-4.533-5.037h-2.45Zm7.189 7.474a19.72 19.72 0 0 0 3.29-.763l-.757-2.33c-.94.304-1.903.528-2.88.667l.347 2.426Zm2.91-.703c-.016 0-.572.005-.889-.554a1.08 1.08 0 0 1-.142-.568c.003-.108.024-.179.026-.187.002-.005-.004.013-.06.149a5.51 5.51 0 0 0-.168.45l2.336.739c.022-.072.052-.147.097-.255.032-.078.105-.249.152-.412.024-.086.186-.604-.11-1.125-.366-.645-1.03-.687-1.241-.687v2.45Zm-1.116-.971a7.532 7.532 0 0 0-1.073 3.835l2.45.012a5.08 5.08 0 0 1 .724-2.586l-2.1-1.261Zm-1.073 3.841c0 .874.35 1.757.783 2.515.447.782 1.05 1.553 1.705 2.23.656.676 1.397 1.291 2.138 1.744.708.431 1.563.805 2.412.79l-.046-2.45c-.154.003-.523-.086-1.09-.432-.532-.325-1.114-.8-1.655-1.358-.54-.558-1.01-1.166-1.335-1.738-.34-.595-.462-1.04-.462-1.301H64.2Zm7.038 7.279c1.22-.023 2.211-.368 2.887-.628.375-.144.56-.223.722-.271.07-.021.062-.012.008-.009a.855.855 0 0 1-.46-.119l1.21-2.129a1.603 1.603 0 0 0-.887-.199 2.524 2.524 0 0 0-.575.109c-.279.084-.634.23-.896.331-.6.23-1.27.45-2.055.465l.046 2.45Zm3.156-1.027a.86.86 0 0 1-.443-.669c-.001-.024.001.048-.069.314-.064.244-.158.544-.283.948-.121.391-.263.855-.406 1.383l2.365.641c.13-.484.262-.913.382-1.3.116-.375.23-.74.312-1.05.076-.288.16-.661.147-1.023-.015-.411-.173-1.02-.794-1.373l-1.21 2.129Zm-1.201 1.976c-.246.906.001 1.845.347 2.601.36.787.91 1.56 1.531 2.229.623.67 1.359 1.279 2.126 1.712.743.419 1.65.747 2.565.645l-.27-2.435c-.188.021-.558-.043-1.092-.344-.51-.288-1.051-.726-1.534-1.246-.484-.521-.869-1.08-1.098-1.58-.243-.531-.24-.835-.21-.941l-2.365-.641Zm6.552 7.189a27.032 27.032 0 0 0 3.249-.503c.361-.078.53-.117.646-.135.058-.009.009.004-.088-.003a1.095 1.095 0 0 1-.74-.395 1.092 1.092 0 0 1-.259-.798c.01-.096.03-.143.012-.088-.04.123-.096.249-.225.59-.23.609-.541 1.528-.787 2.866l2.41.443c.213-1.161.478-1.936.67-2.443.08-.217.198-.505.256-.681.031-.093.084-.261.103-.452a1.359 1.359 0 0 0-.302-1.01 1.36 1.36 0 0 0-.945-.475 2.045 2.045 0 0 0-.477.025c-.212.032-.51.101-.791.162-.612.132-1.554.321-2.97.458l.238 2.439Zm1.808 1.536c-.074.405-.014.816.062 1.141.082.35.213.722.375 1.094.324.744.807 1.572 1.402 2.348 1.13 1.472 2.952 3.122 5.147 3.122v-2.45c-.993 0-2.18-.83-3.203-2.163a9.058 9.058 0 0 1-1.1-1.835 4.13 4.13 0 0 1-.236-.675c-.045-.195-.022-.223-.037-.143l-2.41-.439Zm6.984 7.705c.454.001.907-.045 1.351-.139l-.503-2.397c-.277.058-.56.087-.844.086l-.004 2.45Zm1.618-.227 2.28-1.064-1.036-2.221-2.28 1.064 1.035 2.221Zm2.502-1.199a6.48 6.48 0 0 0 .969-.905l-1.848-1.609c-.18.207-.382.396-.602.563l1.481 1.951Zm.882-.816 45.037-42.168-1.675-1.789-45.036 42.169 1.674 1.788Zm44.979-42.118a12.955 12.955 0 0 0 2.487-2.734l-2.029-1.373a10.553 10.553 0 0 1-2.017 2.218l1.559 1.889Zm2.436-2.665c1.906-2.432 2.523-5.756 2.781-8.477.13-1.38.174-2.68.221-3.685.024-.512.049-.936.084-1.276.038-.364.079-.529.096-.574l-2.292-.865c-.137.362-.201.797-.241 1.187-.043.414-.07.9-.094 1.413-.05 1.046-.09 2.264-.213 3.57-.251 2.647-.826 5.354-2.27 7.196l1.928 1.511Zm6.575-17.987 4.835-4.971-1.756-1.708-4.835 4.97 1.756 1.709Zm-17.365-27.418c-8.109 6.189-6.255 5.611-12.831 9.403l1.224 2.123c6.746-3.89 5.288-3.621 13.093-9.578l-1.486-1.948Z" fill="#3F4042"/><path fill-rule="evenodd" clip-rule="evenodd" d="m109.535 120.537 6.973 6.722a5.63 5.63 0 0 1 .132 7.946 5.693 5.693 0 0 1-7.985.123l-6.973-6.732a5.63 5.63 0 0 1-.123-7.936 5.692 5.692 0 0 1 7.976-.123ZM117.719 112.158l7.238 6.976a5.821 5.821 0 0 1 .133 8.238 5.895 5.895 0 0 1-8.279.132l-7.238-6.986a5.831 5.831 0 0 1-1.768-4.087 5.83 5.83 0 0 1 1.635-4.141 5.884 5.884 0 0 1 8.279-.132ZM125.799 102.141l7.872 7.588a6.327 6.327 0 0 1 .142 8.944 6.388 6.388 0 0 1-4.47 1.919 6.393 6.393 0 0 1-4.528-1.778l-7.862-7.579a6.33 6.33 0 0 1-1.929-4.447 6.328 6.328 0 0 1 1.787-4.506 6.385 6.385 0 0 1 8.988-.141ZM102.363 129.651l5.762 5.554a4.643 4.643 0 0 1 1.099 5.064 4.67 4.67 0 0 1-.995 1.527 4.664 4.664 0 0 1-3.29 1.424 4.674 4.674 0 0 1-3.333-1.321l-5.762-5.554a4.648 4.648 0 0 1-1.431-3.274 4.624 4.624 0 0 1 1.327-3.317 4.688 4.688 0 0 1 6.623-.103Z" fill="#FDD6C1" stroke="#3F4042" stroke-width="2.45" stroke-miterlimit="22.93"/><path d="m230.286 70.232-22.707 37.739 18.305 10.905 22.707-37.738-18.305-10.906Z" fill="#D1D2D9" stroke="#3F4042" stroke-width="1.76" stroke-linecap="round" stroke-linejoin="round"/><path d="m231.134 73.569-20.199 33.57 14.108 8.406 20.2-33.571-14.109-8.406Z" fill="#fff" stroke="#393939" stroke-width="1.76" stroke-linecap="round" stroke-linejoin="round"/><path clip-rule="evenodd" d="m241.162 79.602-5.856-3.484a4.806 4.806 0 0 1-2.967 2.197 4.828 4.828 0 0 1-3.656-.55l-17.731 29.46 14.107 8.398 17.721-29.45a4.777 4.777 0 0 1-2.259-4.817 4.777 4.777 0 0 1 .641-1.754v0Z" stroke="#3F4042" stroke-width="1.76" stroke-linecap="round" stroke-linejoin="round"/><path clip-rule="evenodd" d="M232.827 92.867a5.007 5.007 0 0 0-1.745-2.332 5.047 5.047 0 0 0-7.544 1.893 4.99 4.99 0 0 0 .827 5.503 5.036 5.036 0 0 0 2.507 1.492 5.058 5.058 0 0 0 4.605-1.15 4.987 4.987 0 0 0 1.35-5.406v0Z" stroke="#393939" stroke-width="1.76" stroke-linecap="round" stroke-linejoin="round"/><path d="m251.703 78.333-35.509 26.213 12.711 17.05 35.509-26.212-12.711-17.05Z" fill="#D1D2D9" stroke="#3F4042" stroke-width="1.76" stroke-linecap="round" stroke-linejoin="round"/><path d="m251.189 81.737-31.581 23.312 9.798 13.142 31.58-23.313-9.797-13.141Z" fill="#fff" stroke="#3F4042" stroke-width="1.76" stroke-linecap="round" stroke-linejoin="round"/><path clip-rule="evenodd" d="m258.136 91.116-4.078-5.451a4.804 4.804 0 0 1-3.572.892 4.816 4.816 0 0 1-3.155-1.89l-27.703 20.505 9.793 13.181 27.712-20.458a4.75 4.75 0 0 1-.292-5.386 4.788 4.788 0 0 1 1.295-1.393v0Z" stroke="#393939" stroke-width="1.76" stroke-linecap="round" stroke-linejoin="round"/><path clip-rule="evenodd" d="M245.325 100.192a4.992 4.992 0 0 0-.713-2.82 5.03 5.03 0 0 0-2.168-1.95 5.056 5.056 0 0 0-5.531.824 4.996 4.996 0 0 0 .39 7.733 5.064 5.064 0 0 0 4.697.691 5.02 5.02 0 0 0 2.853-2.58 4.98 4.98 0 0 0 .472-1.898v0Z" stroke="#393939" stroke-width="1.76" stroke-linecap="round" stroke-linejoin="round"/><path d="M231.237 85.58h-31.156c-4.776 0-8.648 3.853-8.648 8.605v38.092c0 4.753 3.872 8.605 8.648 8.605h31.156c4.776 0 8.648-3.852 8.648-8.605V94.185c0-4.752-3.872-8.605-8.648-8.605Z" fill="#E2E3E4" stroke="#3F4042" stroke-width="1.76" stroke-miterlimit="22.93"/><path d="M229.241 88.122h-27.154c-4.165 0-7.541 3.36-7.541 7.504v35.211c0 4.144 3.376 7.503 7.541 7.503h27.154c4.165 0 7.541-3.359 7.541-7.503V95.626c0-4.144-3.376-7.504-7.541-7.504Z" stroke="#30B3E7" stroke-width="1.76" stroke-miterlimit="22.93" stroke-linecap="round" stroke-dasharray="8.78 5.27"/><path d="M218.143 81.202h-4.968c-2.335 0-4.229 1.885-4.229 4.209v11.166c0 2.324 1.894 4.208 4.229 4.208h4.968c2.335 0 4.229-1.884 4.229-4.208V85.41c0-2.325-1.894-4.209-4.229-4.209Z" fill="#E2E3E4" stroke="#3F4042" stroke-width="1.89" stroke-miterlimit="22.93"/><path d="M215.664 97.254a3.398 3.398 0 0 0 3.406-3.389 3.398 3.398 0 0 0-3.406-3.39 3.398 3.398 0 0 0-3.406 3.39 3.398 3.398 0 0 0 3.406 3.39Z" stroke="#3F4042" stroke-width="1.76" stroke-miterlimit="22.93"/></g><defs><clipPath id="a"><path fill="#fff" d="M0 0h273v148H0z"/></clipPath></defs></svg>