<svg viewBox="0 0 267 159" fill="none" xmlns="http://www.w3.org/2000/svg"><g clip-path="url(#a)"><path d="M266.17 0H0v158.74h266.17V0Z" fill="#fff"/><path fill-rule="evenodd" clip-rule="evenodd" d="M62.57 8.26h109.62a.192.192 0 0 1 .132.063.194.194 0 0 1 .048.137v106.79a.188.188 0 0 1-.048.137.19.19 0 0 1-.132.063H62.57a.174.174 0 0 1-.128-.063.182.182 0 0 1-.042-.137V8.46a.179.179 0 0 1 .1-.182.18.18 0 0 1 .07-.018Z" fill="#ADADAD" stroke="#4B4B4D" stroke-width="5.36" stroke-miterlimit="22.93"/><path d="M117.34 112.06v29.32" stroke="#4B4B4D" stroke-width="2.6" stroke-miterlimit="16.38" stroke-linecap="round"/><path d="M53.08 141.74h128.46" stroke="#4B4B4D" stroke-width="2.88" stroke-miterlimit="16.38" stroke-linecap="round"/><path fill-rule="evenodd" clip-rule="evenodd" d="M117.34 145.78a4.4 4.4 0 1 0-4.4-4.4 4.409 4.409 0 0 0 4.4 4.4ZM177.82 146.52a4.4 4.4 0 1 0-4.4-4.4 4.409 4.409 0 0 0 4.4 4.4ZM57 146.14a4.396 4.396 0 0 0 4.065-2.716A4.4 4.4 0 1 0 57 146.14Z" fill="#ADADAD" stroke="#4B4B4D" stroke-width="1.87" stroke-miterlimit="16.38" stroke-linecap="round"/><path d="M171.68 46.75H62.15a4.62 4.62 0 0 0-4.62 4.62v21.55a4.62 4.62 0 0 0 4.62 4.62h109.53a4.62 4.62 0 0 0 4.62-4.62V51.37a4.62 4.62 0 0 0-4.62-4.62Z" fill="#fff"/><path d="M176.23 60v2.77m0 8.92v2.69a4.63 4.63 0 0 1-4.62 4.62H62.07a4.63 4.63 0 0 1-4.62-4.62V52.81a4.63 4.63 0 0 1 4.62-4.62h109.54a4.63 4.63 0 0 1 4.62 4.62v.3" stroke="#4B4B4D" stroke-width="5.36" stroke-miterlimit="16.38" stroke-linecap="round"/><path d="M65.96 53.81h6.42M78.79 53.81h6.42M91.62 53.81h6.42M65.96 62.34h6.42M78.79 62.34h6.42M91.62 62.34h6.42M65.96 70.86h6.42M78.79 70.86h6.42M91.62 70.86h6.42" stroke="#E8EAED" stroke-width="3.25" stroke-miterlimit="16.38" stroke-linecap="round"/><path d="M170.5 88.35H60.97a4.62 4.62 0 0 0-4.62 4.62v21.55a4.62 4.62 0 0 0 4.62 4.62H170.5a4.62 4.62 0 0 0 4.62-4.62V92.97a4.62 4.62 0 0 0-4.62-4.62Z" fill="#fff"/><path d="m151.92 118.49-90.92.05a4.621 4.621 0 0 1-4.61-4.61V92.37A4.63 4.63 0 0 1 61 87.75h109.52a4.63 4.63 0 0 1 4.62 4.62v21.56a4.628 4.628 0 0 1-4.62 4.61h-9.65m14.27-19.14v4.3-4.3Z" stroke="#4B4B4D" stroke-width="5.36" stroke-miterlimit="16.38" stroke-linecap="round"/><path d="M64.81 94.52h6.41M77.64 94.52h6.42M90.47 94.52h6.42M64.81 103.04h6.41M77.64 103.04h6.42M90.47 103.04h6.42M64.81 111.57h6.41M77.64 111.57h6.42M90.47 111.57h6.42" stroke="#E8EAED" stroke-width="3.25" stroke-miterlimit="16.38" stroke-linecap="round"/><path fill-rule="evenodd" clip-rule="evenodd" d="M163.26 66h48.37a.16.16 0 0 1 .16.16v52.54a.17.17 0 0 1-.046.117.176.176 0 0 1-.114.053h-81.16a.183.183 0 0 1-.118-.052.183.183 0 0 1-.052-.118v-61a.175.175 0 0 1 .053-.114.172.172 0 0 1 .117-.046H155c.09 0 7.65 7.88 7.72 7.94l.54.52Z" fill="#CACBCC"/><path d="M137 57.89h2.44m4.56 0h10.75c.09 0 7.64 7.87 7.71 7.93l.58.53h48.36c.043 0 .085.017.117.046.031.03.05.07.053.114v52.54a.176.176 0 0 1-.053.114.17.17 0 0 1-.117.046h-81.12a.16.16 0 0 1-.16-.16v-61a.16.16 0 0 1 .16-.16h2.42" stroke="#4B4B4D" stroke-width="3.47" stroke-miterlimit="16.38" stroke-linecap="round"/><path fill-rule="evenodd" clip-rule="evenodd" d="M156 73.31h48.36c.043 0 .085.016.117.046.031.03.05.07.053.114V126a.183.183 0 0 1-.052.118.183.183 0 0 1-.118.052h-81.13a.176.176 0 0 1-.114-.053.17.17 0 0 1-.046-.117V65a.169.169 0 0 1 .16-.17h24.5c.09 0 7.65 7.88 7.72 7.94l.55.54Z" fill="#EAEBEC" stroke="#4B4B4D" stroke-width="3.67" stroke-miterlimit="22.93"/><path d="M123 111.81V64.66a.175.175 0 0 1 .053-.114.172.172 0 0 1 .117-.046h24.5c.09 0 7.65 7.88 7.72 7.94l.61.56h48.37a.169.169 0 0 1 .16.17v52.53a.16.16 0 0 1-.16.16h-81.16a.17.17 0 0 1-.117-.046.176.176 0 0 1-.053-.114v-8.5" stroke="#4B4B4D" stroke-width="3.47" stroke-miterlimit="16.38" stroke-linecap="round"/><path d="M171.69 5.56H62.16a4.62 4.62 0 0 0-4.62 4.62v21.55a4.62 4.62 0 0 0 4.62 4.62h109.53a4.62 4.62 0 0 0 4.62-4.62V10.18a4.62 4.62 0 0 0-4.62-4.62Z" fill="#fff"/><path d="M57.44 15.75v-5.32a4.63 4.63 0 0 1 4.62-4.61H171.6a4.62 4.62 0 0 1 4.61 4.61V32a4.63 4.63 0 0 1-4.61 4.62H62.06A4.62 4.62 0 0 1 57.44 32l.1-7.22" stroke="#4B4B4D" stroke-width="5.36" stroke-miterlimit="16.38" stroke-linecap="round"/><path d="M65.93 12.02h6.42M78.76 12.02h6.42M91.59 12.02h6.42M65.93 20.55h6.42M78.76 20.55h6.42M91.59 20.55h6.42M65.93 29.08h6.42M78.76 29.08h6.42M91.59 29.08h6.42" stroke="#E8EAED" stroke-width="3.25" stroke-miterlimit="16.38" stroke-linecap="round"/><path fill-rule="evenodd" clip-rule="evenodd" d="M140.56 18.26a2.94 2.94 0 1 0 .02-5.88 2.94 2.94 0 0 0-.02 5.88Z" fill="#E69C24"/><path clip-rule="evenodd" d="M140.56 18.26a2.94 2.94 0 1 0 .02-5.88 2.94 2.94 0 0 0-.02 5.88Z" stroke="#4B4B4D" stroke-width="2.45" stroke-miterlimit="22.93"/><path fill-rule="evenodd" clip-rule="evenodd" d="M151.19 18.26a2.94 2.94 0 1 0 .02-5.88 2.94 2.94 0 0 0-.02 5.88Z" fill="#E69C24"/><path clip-rule="evenodd" d="M151.19 18.26a2.94 2.94 0 1 0 .02-5.88 2.94 2.94 0 0 0-.02 5.88Z" stroke="#4B4B4D" stroke-width="2.45" stroke-miterlimit="22.93"/><path fill-rule="evenodd" clip-rule="evenodd" d="M161.82 18.09a2.94 2.94 0 1 0 .02-5.88 2.94 2.94 0 0 0-.02 5.88Z" fill="#E69C24"/><path clip-rule="evenodd" d="M161.82 18.26a2.94 2.94 0 1 0 .02-5.88 2.94 2.94 0 0 0-.02 5.88Z" stroke="#4B4B4D" stroke-width="2.45" stroke-miterlimit="22.93"/><path fill-rule="evenodd" clip-rule="evenodd" d="M132.81 84.11h-.53v-3.39c-.153.145-.324.27-.51.37a3.132 3.132 0 0 1-.56.27v-.51c.284-.13.547-.302.78-.51.195-.161.358-.358.48-.58h.34v4.35Zm3-2.14a4.06 4.06 0 0 1 .16-1.23c.084-.28.247-.53.47-.72.221-.176.497-.268.78-.26.212-.003.421.045.61.14.177.096.326.237.43.41.129.195.221.412.27.64.075.328.109.664.1 1 .015.416-.039.832-.16 1.23a1.53 1.53 0 0 1-.46.73 1.34 1.34 0 0 1-1.77-.19 2.93 2.93 0 0 1-.43-1.77v.02Zm.55 0c-.049.484.038.972.25 1.41a.72.72 0 0 0 .61.36.75.75 0 0 0 .62-.36c.32-.916.32-1.914 0-2.83a.732.732 0 0 0-.63-.35.68.68 0 0 0-.58.31 2.766 2.766 0 0 0-.23 1.49l-.04-.03Zm6.48 2.13h-.53v-3.38a2.088 2.088 0 0 1-.5.37 3.996 3.996 0 0 1-.56.27v-.51c.284-.13.547-.302.78-.51.192-.162.351-.359.47-.58h.34v4.35-.01Zm5 0h-.53v-3.38a2.3 2.3 0 0 1-.5.37 3.996 3.996 0 0 1-.56.27v-.51c.283-.132.546-.304.78-.51.192-.162.351-.359.47-.58h.34v4.35-.01ZM151 82a4.12 4.12 0 0 1 .15-1.23c.088-.279.25-.528.47-.72.221-.176.497-.268.78-.26.215-.003.427.045.62.14.175.098.323.24.43.41.122.197.209.414.26.64.075.328.109.664.1 1a4.12 4.12 0 0 1-.15 1.23 1.55 1.55 0 0 1-.47.73 1.34 1.34 0 0 1-1.77-.19A2.946 2.946 0 0 1 151 82Zm.54 0c-.049.484.038.972.25 1.41a.707.707 0 0 0 .97.26.707.707 0 0 0 .26-.26 4.133 4.133 0 0 0 0-2.83.734.734 0 0 0-.62-.35.688.688 0 0 0-.59.31 2.767 2.767 0 0 0-.27 1.46Zm4.5 0a4.12 4.12 0 0 1 .15-1.23c.084-.28.247-.53.47-.72.221-.176.497-.268.78-.26.212-.003.421.045.61.14.178.098.33.239.44.41.122.197.209.414.26.64.075.328.109.664.1 1 .015.416-.039.832-.16 1.23a1.53 1.53 0 0 1-.46.73 1.34 1.34 0 0 1-1.77-.19A2.947 2.947 0 0 1 156 82h.04Zm.54 0c-.049.484.038.972.25 1.41a.72.72 0 0 0 .61.36.744.744 0 0 0 .62-.36 4.133 4.133 0 0 0 0-2.83.734.734 0 0 0-.956-.272.677.677 0 0 0-.254.232 2.767 2.767 0 0 0-.27 1.46Zm6.42 2.11h-.53v-3.39c-.153.145-.324.27-.51.37a3.503 3.503 0 0 1-.56.27v-.51c.284-.13.547-.302.78-.51.192-.162.351-.359.47-.58h.35v4.35Zm3-2.14a3.765 3.765 0 0 1 .16-1.23c.08-.282.244-.533.47-.72.22-.178.497-.27.78-.26.212-.002.421.046.61.14.175.099.323.24.43.41a2.1 2.1 0 0 1 .27.64c.07.329.104.664.1 1 .01.416-.044.83-.16 1.23a1.47 1.47 0 0 1-.47.73 1.18 1.18 0 0 1-.78.25 1.2 1.2 0 0 1-1-.44 2.865 2.865 0 0 1-.43-1.77l.02.02Zm.54 0c-.044.484.043.97.25 1.41a.74.74 0 0 0 .62.36.719.719 0 0 0 .61-.36 4.133 4.133 0 0 0 0-2.83.706.706 0 0 0-.62-.35.658.658 0 0 0-.58.31 2.75 2.75 0 0 0-.28 1.46Zm4.5 0a3.765 3.765 0 0 1 .16-1.23c.08-.282.244-.533.47-.72.22-.178.497-.27.78-.26.212-.002.421.046.61.14.175.099.323.24.43.41.121.199.212.415.27.64.066.33.096.664.09 1a4.12 4.12 0 0 1-.15 1.23 1.55 1.55 0 0 1-.47.73 1.32 1.32 0 0 1-1.76-.19 2.865 2.865 0 0 1-.43-1.77v.02Zm.54 0c-.044.484.043.97.25 1.41a.74.74 0 0 0 .62.36.719.719 0 0 0 .61-.36 4.133 4.133 0 0 0 0-2.83.706.706 0 0 0-.62-.35.658.658 0 0 0-.58.31c-.23.45-.327.957-.28 1.46Zm6.49 2.13h-.53v-3.38a2.589 2.589 0 0 1-.5.37 3.996 3.996 0 0 1-.56.27v-.51a3.22 3.22 0 0 0 .77-.51c.198-.159.361-.356.48-.58h.34v4.35-.01Zm3-2.14a4.12 4.12 0 0 1 .15-1.23c.084-.28.247-.53.47-.72.221-.176.497-.268.78-.26.212-.003.421.045.61.14.178.098.33.239.44.41.122.197.209.414.26.64.075.328.109.664.1 1 .015.416-.039.832-.16 1.23a1.53 1.53 0 0 1-.46.73 1.34 1.34 0 0 1-1.77-.19 2.94 2.94 0 0 1-.29-1.71l-.13-.04Zm.54 0c-.049.484.038.972.25 1.41a.72.72 0 0 0 .61.36.737.737 0 0 0 .62-.36 4.133 4.133 0 0 0 0-2.83.734.734 0 0 0-.956-.272.677.677 0 0 0-.254.232 2.767 2.767 0 0 0-.27 1.46Zm6.49 2.13h-.54v-3.37a2.088 2.088 0 0 1-.5.37 3.503 3.503 0 0 1-.56.27v-.51c.284-.13.547-.302.78-.51.192-.162.351-.359.47-.58h.35v4.35-.02Zm5 0h-.53v-3.37a2.3 2.3 0 0 1-.5.37 3.996 3.996 0 0 1-.56.27v-.51c.284-.13.547-.302.78-.51.192-.162.351-.359.47-.58h.34v4.35-.02Zm3.21-2.09a3.765 3.765 0 0 1 .16-1.23c.08-.28.24-.53.46-.72.224-.177.504-.27.79-.26.212-.002.421.046.61.14.175.098.323.24.43.41.112.207.193.43.24.66.066.33.096.664.09 1 .029.402-.001.807-.09 1.2a1.55 1.55 0 0 1-.47.73 1.32 1.32 0 0 1-1.76-.19 2.865 2.865 0 0 1-.43-1.77l-.03.03Zm.54 0c-.049.484.038.972.25 1.41a.74.74 0 0 0 .62.36.719.719 0 0 0 .61-.36 4.133 4.133 0 0 0 0-2.83.706.706 0 0 0-.62-.35.658.658 0 0 0-.58.31c-.23.45-.327.957-.28 1.46Zm-64 8.88h-.53v-3.41a2.833 2.833 0 0 1-.51.37 3.132 3.132 0 0 1-.56.27v-.51c.284-.13.547-.302.78-.51.195-.161.358-.358.48-.58h.34V90.88Zm5 0h-.53v-3.41a2.833 2.833 0 0 1-.51.37 3.503 3.503 0 0 1-.56.27v-.51c.284-.13.547-.302.78-.51.192-.162.351-.359.47-.58h.35V90.88Zm5 0h-.53v-3.41c-.15.145-.318.269-.5.37a3.996 3.996 0 0 1-.56.27v-.51c.284-.13.547-.302.78-.51.192-.162.351-.359.47-.58h.34V90.88Zm3.05-2.14a3.765 3.765 0 0 1 .16-1.23c.08-.285.243-.54.47-.73a1.21 1.21 0 0 1 .78-.25c.212-.002.421.046.61.14.175.099.323.24.43.41.121.199.212.415.27.64.067.329.097.664.09 1a4.12 4.12 0 0 1-.15 1.23c-.084.28-.247.53-.47.72a1.2 1.2 0 0 1-.78.26 1.168 1.168 0 0 1-1-.45 2.835 2.835 0 0 1-.43-1.76l.02.02Zm.54 0c-.044.487.042.977.25 1.42a.733.733 0 0 0 .62.35.709.709 0 0 0 .61-.35c.212-.441.298-.933.25-1.42a2.628 2.628 0 0 0-.25-1.41.719.719 0 0 0-.949-.278.683.683 0 0 0-.251.228c-.229.45-.326.957-.28 1.46Zm4.5 0a4.12 4.12 0 0 1 .15-1.23c.087-.282.25-.534.47-.73.225-.168.499-.256.78-.25.215-.003.427.045.62.14.175.099.323.24.43.41.122.197.209.414.26.64.075.328.109.664.1 1a4.12 4.12 0 0 1-.15 1.23c-.084.28-.247.53-.47.72-.224.177-.504.27-.79.26a1.19 1.19 0 0 1-1-.45 2.903 2.903 0 0 1-.42-1.76l.02.02Zm.54 0c-.05.487.037.979.25 1.42a.723.723 0 0 0 .968.253.723.723 0 0 0 .262-.253c.212-.441.298-.933.25-1.42a2.628 2.628 0 0 0-.25-1.41.735.735 0 0 0-.62-.36.722.722 0 0 0-.59.31c-.22.453-.314.958-.27 1.46Zm4.5 0a4.12 4.12 0 0 1 .15-1.23 1.55 1.55 0 0 1 .47-.73c.225-.168.499-.256.78-.25.212-.003.421.045.61.14.178.098.33.239.44.41.122.197.209.414.26.64.075.328.109.664.1 1 .015.416-.039.832-.16 1.23-.08.28-.24.53-.46.72-.224.177-.504.27-.79.26a1.19 1.19 0 0 1-1-.45 2.903 2.903 0 0 1-.42-1.76l.02.02Zm.54 0c-.05.487.037.979.25 1.42a.714.714 0 0 0 1.23 0c.207-.443.293-.933.25-1.42a2.73 2.73 0 0 0-.25-1.41.74.74 0 0 0-.62-.36.7.7 0 0 0-.59.31c-.22.453-.314.958-.27 1.46Zm6.48 2.12h-.53v-3.39a2.833 2.833 0 0 1-.51.37 3.503 3.503 0 0 1-.56.27v-.51c.284-.13.547-.302.78-.51.192-.162.351-.359.47-.58h.35v4.35Zm3-2.14a3.765 3.765 0 0 1 .16-1.23c.08-.285.243-.54.47-.73a1.21 1.21 0 0 1 .78-.25c.212-.002.421.046.61.14.175.099.323.24.43.41a2.1 2.1 0 0 1 .27.64c.071.328.104.664.1 1 .01.416-.044.83-.16 1.23-.08.282-.244.533-.47.72a1.3 1.3 0 0 1-1.76-.19 2.835 2.835 0 0 1-.43-1.76v.02Zm.54 0c-.044.487.042.977.25 1.42a.734.734 0 0 0 .62.35.709.709 0 0 0 .61-.35c.212-.441.298-.933.25-1.42a2.628 2.628 0 0 0-.25-1.41.719.719 0 0 0-.949-.279.683.683 0 0 0-.251.229 2.78 2.78 0 0 0-.28 1.46Zm6.49 2.14h-.53v-3.39c-.154.14-.321.264-.5.37a3.996 3.996 0 0 1-.56.27v-.51a3.49 3.49 0 0 0 .78-.51c.192-.162.351-.359.47-.58h.34v4.35Zm3-2.14a4.12 4.12 0 0 1 .15-1.23c.087-.282.25-.534.47-.73a1.26 1.26 0 0 1 .78-.25c.215-.003.427.045.62.14.175.099.323.24.43.41.122.197.209.414.26.64.075.328.109.664.1 1a4.12 4.12 0 0 1-.15 1.23c-.084.28-.247.53-.47.72-.224.177-.504.27-.79.26a1.19 1.19 0 0 1-1-.45 2.903 2.903 0 0 1-.42-1.76l.02.02Zm.54 0c-.05.487.037.979.25 1.42a.723.723 0 0 0 .968.253.723.723 0 0 0 .262-.253c.212-.441.298-.933.25-1.42a2.628 2.628 0 0 0-.25-1.41.74.74 0 0 0-.62-.36.7.7 0 0 0-.59.31c-.22.453-.314.958-.27 1.46Zm6.49 2.14h-.53v-3.39a2.833 2.833 0 0 1-.51.37 3.132 3.132 0 0 1-.56.27v-.51c.284-.13.547-.302.78-.51.195-.161.358-.358.48-.58h.34v4.35Zm3-2.14a4.06 4.06 0 0 1 .16-1.23 1.55 1.55 0 0 1 .47-.73 1.26 1.26 0 0 1 .78-.25c.212-.003.421.045.61.14.177.096.326.237.43.41.129.195.221.412.27.64.075.328.109.664.1 1 .015.416-.039.832-.16 1.23-.08.282-.244.533-.47.72a1.17 1.17 0 0 1-.78.26 1.177 1.177 0 0 1-1-.45 2.835 2.835 0 0 1-.43-1.76l.02.02Zm.55 0c-.05.487.037.979.25 1.42a.714.714 0 0 0 .61.35.745.745 0 0 0 .62-.35c.202-.444.285-.934.24-1.42a2.747 2.747 0 0 0-.24-1.41.744.744 0 0 0-.63-.36.7.7 0 0 0-.58.31c-.22.453-.314.958-.27 1.46Zm6.48 2.14h-.53v-3.39c-.152.142-.32.266-.5.37a3.996 3.996 0 0 1-.56.27v-.51c.284-.13.547-.302.78-.51.192-.162.351-.359.47-.58h.34v4.35Zm5 0h-.53v-3.39c-.154.14-.321.264-.5.37a3.996 3.996 0 0 1-.56.27v-.51a3.49 3.49 0 0 0 .78-.51c.192-.162.351-.359.47-.58h.34v4.35Zm-67.48 4.61a4.22 4.22 0 0 1 .15-1.24c.086-.28.249-.529.47-.72.223-.172.499-.26.78-.25.212-.003.421.045.61.14.18.095.332.237.44.41.122.197.209.414.26.64.075.328.109.664.1 1 .015.416-.039.832-.16 1.23a1.55 1.55 0 0 1-.46.72c-.224.177-.504.27-.79.26a1.19 1.19 0 0 1-1-.45 2.903 2.903 0 0 1-.42-1.76l.02.02Zm.54 0c-.048.487.038.979.25 1.42a.714.714 0 0 0 .61.35.75.75 0 0 0 .62-.35 4.162 4.162 0 0 0 0-2.84.75.75 0 0 0-.62-.35.7.7 0 0 0-.59.31 2.767 2.767 0 0 0-.27 1.46Zm4.49 0a4.191 4.191 0 0 1 .16-1.24c.086-.28.249-.529.47-.72.223-.172.499-.26.78-.25.212-.003.421.045.61.14.179.093.329.235.43.41.129.195.221.412.27.64.075.328.109.664.1 1 .015.416-.039.832-.16 1.23a1.55 1.55 0 0 1-.46.72c-.224.177-.504.27-.79.26a1.19 1.19 0 0 1-1-.45 2.892 2.892 0 0 1-.43-1.76l.02.02Zm.55 0c-.048.487.038.979.25 1.42a.714.714 0 0 0 .61.35.766.766 0 0 0 .62-.35c.32-.92.32-1.92 0-2.84a.774.774 0 0 0-.63-.35.7.7 0 0 0-.58.31 2.767 2.767 0 0 0-.27 1.46Zm4.49 0c-.014-.42.04-.838.16-1.24.083-.281.246-.531.47-.72a1.16 1.16 0 0 1 .78-.25c.212-.002.421.046.61.14.179.093.329.235.43.41a2.1 2.1 0 0 1 .27.64c.071.328.104.664.1 1 .01.416-.044.83-.16 1.23a1.493 1.493 0 0 1-.47.72 1.3 1.3 0 0 1-1.76-.19 2.835 2.835 0 0 1-.43-1.76v.02Zm.55 0c-.045.486.038.976.24 1.42a.723.723 0 0 0 .968.253.723.723 0 0 0 .262-.253 4.162 4.162 0 0 0 0-2.84.746.746 0 0 0-.62-.35.687.687 0 0 0-.58.31 2.767 2.767 0 0 0-.27 1.46Zm4.49 0c-.014-.42.04-.838.16-1.24.083-.281.246-.531.47-.72a1.16 1.16 0 0 1 .78-.25c.212-.002.421.046.61.14.178.096.326.237.43.41.121.199.212.415.27.64.067.329.097.664.09 1a4.12 4.12 0 0 1-.15 1.23c-.086.28-.249.529-.47.72a1.199 1.199 0 0 1-.78.26 1.168 1.168 0 0 1-1-.45 2.835 2.835 0 0 1-.43-1.76l.02.02Zm.54 0c-.043.487.043.977.25 1.42a.723.723 0 0 0 .968.253.723.723 0 0 0 .262-.253 4.162 4.162 0 0 0 0-2.84.746.746 0 0 0-.62-.35.687.687 0 0 0-.58.31c-.23.45-.327.957-.28 1.46ZM153 97.6h-.53v-3.38c-.156.137-.324.26-.5.37a3.996 3.996 0 0 1-.56.27v-.51a3.49 3.49 0 0 0 .78-.51c.192-.162.351-.359.47-.58h.34v4.34Zm5 0h-.53v-3.38a3.386 3.386 0 0 1-.51.37 3.132 3.132 0 0 1-.56.27v-.51c.284-.13.547-.302.78-.51.195-.161.358-.358.48-.58h.34v4.34Zm3-2.13a4.191 4.191 0 0 1 .16-1.24c.086-.28.249-.529.47-.72.223-.172.499-.26.78-.25.212-.003.421.045.61.14.179.093.329.235.43.41.129.195.221.412.27.64.075.328.109.664.1 1 .015.416-.039.832-.16 1.23a1.493 1.493 0 0 1-.47.72 1.17 1.17 0 0 1-.78.26 1.177 1.177 0 0 1-1-.45 2.835 2.835 0 0 1-.43-1.76l.02.02Zm.55 0c-.048.487.038.979.25 1.42a.714.714 0 0 0 .61.35.766.766 0 0 0 .62-.35c.32-.92.32-1.92 0-2.84a.774.774 0 0 0-.63-.35.7.7 0 0 0-.58.31 2.767 2.767 0 0 0-.27 1.46Zm4.49 0c-.014-.42.04-.838.16-1.24.083-.281.246-.531.47-.72a1.16 1.16 0 0 1 .78-.25c.212-.002.421.046.61.14.178.096.326.237.43.41a2.1 2.1 0 0 1 .27.64c.071.328.104.664.1 1 .01.416-.044.83-.16 1.23a1.493 1.493 0 0 1-.47.72 1.3 1.3 0 0 1-1.76-.19 2.835 2.835 0 0 1-.43-1.76v.02Zm.54 0c-.043.487.043.977.25 1.42a.723.723 0 0 0 .968.253.723.723 0 0 0 .262-.253 4.162 4.162 0 0 0 0-2.84.746.746 0 0 0-.62-.35.687.687 0 0 0-.58.31 2.75 2.75 0 0 0-.28 1.46Zm6.49 2.13h-.53v-3.38c-.156.137-.324.26-.5.37a3.996 3.996 0 0 1-.56.27v-.51a3.49 3.49 0 0 0 .78-.51c.192-.162.351-.359.47-.58h.34v4.34Zm5 0h-.53v-3.38c-.156.137-.324.26-.5.37a3.996 3.996 0 0 1-.56.27v-.51a3.22 3.22 0 0 0 .77-.51c.198-.159.361-.356.48-.58h.34v4.34Zm3-2.13a4.22 4.22 0 0 1 .15-1.24c.086-.28.249-.529.47-.72.223-.172.499-.26.78-.25.212-.003.421.045.61.14.18.095.332.237.44.41.122.197.209.414.26.64.075.328.109.664.1 1 .015.416-.039.832-.16 1.23a1.55 1.55 0 0 1-.46.72c-.224.177-.504.27-.79.26a1.19 1.19 0 0 1-1-.45 2.903 2.903 0 0 1-.42-1.76l.02.02Zm.54 0c-.048.487.038.979.25 1.42a.714.714 0 0 0 .61.35.75.75 0 0 0 .62-.35 4.162 4.162 0 0 0 0-2.84.75.75 0 0 0-.62-.35.698.698 0 0 0-.47.3 2.767 2.767 0 0 0-.27 1.46l-.12.01Zm6.49 2.13h-.54v-3.38a2.83 2.83 0 0 1-.5.37 3.503 3.503 0 0 1-.56.27v-.51c.284-.13.547-.302.78-.51.192-.162.351-.359.47-.58h.35v4.34ZM191.27 95.47c-.014-.42.04-.838.16-1.24.083-.281.246-.531.47-.72a1.16 1.16 0 0 1 .78-.25c.212-.002.421.046.61.14.178.096.326.237.43.41.121.199.212.415.27.64.071.328.104.664.1 1 .01.416-.044.83-.16 1.23a1.493 1.493 0 0 1-.47.72 1.3 1.3 0 0 1-1.76-.19 2.835 2.835 0 0 1-.43-1.76v.02Zm.54 0c-.043.487.043.977.25 1.42a.723.723 0 0 0 .968.253.723.723 0 0 0 .262-.253 4.162 4.162 0 0 0 0-2.84.746.746 0 0 0-.62-.35.687.687 0 0 0-.58.31c-.23.45-.327.957-.28 1.46Zm6.49 2.13h-.53v-3.38c-.156.137-.324.26-.5.37a3.996 3.996 0 0 1-.56.27v-.51a3.49 3.49 0 0 0 .78-.51c.192-.162.351-.359.47-.58h.34v4.34Zm-65.49 6.75h-.53V101a2.795 2.795 0 0 1-.51.36 2.665 2.665 0 0 1-.56.28v-.52c.286-.123.549-.291.78-.5.195-.161.358-.358.48-.58h.34v4.34-.03Zm3-2.13c.002-.414.066-.825.19-1.22a1.56 1.56 0 0 1 .47-.72 1.2 1.2 0 0 1 .78-.25c.212-.003.421.045.61.14.177.092.326.23.43.4.129.198.221.419.27.65.075.328.109.664.1 1 .015.416-.039.832-.16 1.23a1.55 1.55 0 0 1-.46.72 1.213 1.213 0 0 1-.79.26 1.19 1.19 0 0 1-1-.45 2.89 2.89 0 0 1-.43-1.76h-.01Zm.55 0c-.047.487.039.978.25 1.42a.725.725 0 0 0 .61.35.762.762 0 0 0 .62-.35c.32-.92.32-1.92 0-2.84a.768.768 0 0 0-.63-.35.677.677 0 0 0-.58.31 2.768 2.768 0 0 0-.27 1.46Zm6.48 2.13h-.53V101a2.423 2.423 0 0 1-.5.36 3.254 3.254 0 0 1-.56.28v-.52c.286-.123.549-.291.78-.5.192-.162.351-.359.47-.58h.34v4.34-.03Zm3.05-2.13a3.828 3.828 0 0 1 .16-1.24c.083-.281.246-.531.47-.72.221-.175.498-.264.78-.25.212-.002.421.046.61.14.175.095.323.232.43.4.121.203.212.421.27.65.067.329.097.664.09 1 .012.415-.038.83-.15 1.23a1.56 1.56 0 0 1-.47.72 1.197 1.197 0 0 1-.78.26 1.167 1.167 0 0 1-1-.45 2.835 2.835 0 0 1-.43-1.76l.02.02Zm.54 0c-.042.487.044.977.25 1.42a.75.75 0 0 0 .62.35.73.73 0 0 0 .61-.35 4.162 4.162 0 0 0 0-2.84.741.741 0 0 0-.62-.35.647.647 0 0 0-.331.078.653.653 0 0 0-.249.232c-.23.45-.327.957-.28 1.46Zm4.5 0a4.187 4.187 0 0 1 .15-1.24c.09-.277.252-.526.47-.72.223-.172.499-.26.78-.25a1.36 1.36 0 0 1 .62.14c.175.095.323.232.43.4.122.201.209.421.26.65.075.328.109.664.1 1 .012.415-.038.83-.15 1.23a1.56 1.56 0 0 1-.47.72 1.213 1.213 0 0 1-.79.26 1.19 1.19 0 0 1-1-.45 2.904 2.904 0 0 1-.42-1.76l.02.02Zm.54 0c-.047.487.039.978.25 1.42a.714.714 0 0 0 .615.346.716.716 0 0 0 .615-.346 4.162 4.162 0 0 0 0-2.84.75.75 0 0 0-.62-.35.695.695 0 0 0-.59.31 2.768 2.768 0 0 0-.27 1.46Zm6.49 2.13h-.53V101a2.795 2.795 0 0 1-.51.36 2.665 2.665 0 0 1-.56.28v-.52c.286-.123.549-.291.78-.5.195-.161.358-.358.48-.58h.38v4.34l-.04-.03Zm3-2.13c-.01-.419.044-.837.16-1.24a1.56 1.56 0 0 1 .47-.72c.223-.172.499-.26.78-.25.212-.003.421.045.61.14.177.092.326.23.43.4.129.198.221.419.27.65.075.328.109.664.1 1 .015.416-.039.832-.16 1.23a1.495 1.495 0 0 1-.47.72c-.22.178-.497.271-.78.26a1.176 1.176 0 0 1-1-.45 2.835 2.835 0 0 1-.43-1.76l.02.02Zm.55 0c-.047.487.039.978.25 1.42a.725.725 0 0 0 .61.35.762.762 0 0 0 .62-.35c.32-.92.32-1.92 0-2.84a.768.768 0 0 0-.63-.35.677.677 0 0 0-.58.31 2.768 2.768 0 0 0-.27 1.46Zm6.48 2.13h-.53V101a2.69 2.69 0 0 1-.5.36 3.254 3.254 0 0 1-.56.28v-.52c.286-.123.549-.291.78-.5.192-.162.351-.359.47-.58h.34v4.34-.03Zm5 0h-.53V101a3.109 3.109 0 0 1-.5.36 3.254 3.254 0 0 1-.56.28v-.52c.283-.127.546-.296.78-.5.192-.162.351-.359.47-.58h.34v4.34-.03Zm3-2.13a4.187 4.187 0 0 1 .15-1.24c.09-.277.252-.526.47-.72.223-.172.499-.26.78-.25a1.36 1.36 0 0 1 .62.14c.175.095.323.232.43.4.122.201.209.421.26.65.075.328.109.664.1 1 .012.415-.038.83-.15 1.23a1.56 1.56 0 0 1-.47.72 1.213 1.213 0 0 1-.79.26 1.19 1.19 0 0 1-1-.45 2.904 2.904 0 0 1-.42-1.76l.02.02Zm.54 0c-.047.487.039.978.25 1.42a.714.714 0 0 0 .615.346.716.716 0 0 0 .615-.346 4.162 4.162 0 0 0 0-2.84.75.75 0 0 0-.62-.35.678.678 0 0 0-.59.31 2.768 2.768 0 0 0-.27 1.46Zm6.49 2.13h-.53V101a2.795 2.795 0 0 1-.51.36 2.665 2.665 0 0 1-.56.28v-.52c.286-.123.549-.291.78-.5.195-.161.358-.358.48-.58h.34v4.34-.03Zm5 0h-.54V101a2.423 2.423 0 0 1-.5.36 2.93 2.93 0 0 1-.56.28v-.52c.286-.123.549-.291.78-.5.192-.162.351-.359.47-.58h.35v4.34-.03Zm5 0h-.53V101a2.69 2.69 0 0 1-.5.36 3.254 3.254 0 0 1-.56.28v-.52c.286-.123.549-.291.78-.5.192-.162.351-.359.47-.58h.34v4.34-.03Zm5 0h-.53V101a3.109 3.109 0 0 1-.5.36 3.254 3.254 0 0 1-.56.28v-.52c.283-.127.546-.296.78-.5a2 2 0 0 0 .79-.62h.34v4.34l-.32.01Zm-65.49 6.75H132v-3.38a2.795 2.795 0 0 1-.51.36 3.254 3.254 0 0 1-.56.28v-.52c.282-.13.544-.298.78-.5.195-.161.358-.358.48-.58h.34v4.34Zm5 0H137v-3.38a2.795 2.795 0 0 1-.51.36 3.659 3.659 0 0 1-.56.28v-.52c.282-.13.544-.298.78-.5.192-.162.351-.359.47-.58h.35v4.34Zm3-2.13a3.828 3.828 0 0 1 .16-1.24c.083-.281.246-.531.47-.72.221-.175.498-.264.78-.25.212-.007.422.041.61.14.177.092.326.23.43.4.123.198.214.414.27.64.069.329.103.664.1 1a4.19 4.19 0 0 1-.16 1.23 1.495 1.495 0 0 1-.47.72 1.321 1.321 0 0 1-1.76-.19 2.835 2.835 0 0 1-.43-1.76v.03Zm.55 0a2.83 2.83 0 0 0 .24 1.42.755.755 0 0 0 .62.35.73.73 0 0 0 .61-.35 4.162 4.162 0 0 0 0-2.84.741.741 0 0 0-.62-.35.647.647 0 0 0-.331.078.653.653 0 0 0-.249.232 2.768 2.768 0 0 0-.27 1.46Zm4.49 0a3.828 3.828 0 0 1 .16-1.24c.083-.281.246-.531.47-.72.221-.175.498-.264.78-.25a1.171 1.171 0 0 1 1.04.54c.119.2.21.415.27.64.065.329.096.664.09 1 .011.415-.04.83-.15 1.23a1.56 1.56 0 0 1-.47.72 1.2 1.2 0 0 1-.78.25 1.161 1.161 0 0 1-1-.44 2.835 2.835 0 0 1-.43-1.76l.02.03Zm.54 0c-.042.487.044.977.25 1.42a.75.75 0 0 0 .62.35.73.73 0 0 0 .61-.35 4.162 4.162 0 0 0 0-2.84.741.741 0 0 0-.62-.35.647.647 0 0 0-.331.078.653.653 0 0 0-.249.232c-.23.45-.327.957-.28 1.46Zm6.89 2.13h-.53v-3.38a3.109 3.109 0 0 1-.5.36 4.18 4.18 0 0 1-.56.28v-.52c.279-.135.541-.303.78-.5.192-.162.351-.359.47-.58h.34v4.34Zm5 0h-.53v-3.38a2.795 2.795 0 0 1-.51.36 3.254 3.254 0 0 1-.56.28v-.52c.282-.13.544-.298.78-.5.195-.161.358-.358.48-.58h.34v4.34Zm3-2.13c-.01-.419.044-.837.16-1.24a1.56 1.56 0 0 1 .47-.72 1.367 1.367 0 0 1 1.39-.11c.177.092.326.23.43.4.127.196.218.413.27.64.074.328.108.664.1 1 .013.416-.041.831-.16 1.23a1.495 1.495 0 0 1-.47.72 1.321 1.321 0 0 1-1.76-.19 2.83 2.83 0 0 1-.43-1.7v-.03Zm.55 0c-.047.487.039.978.25 1.42a.725.725 0 0 0 .61.35.762.762 0 0 0 .62-.35c.32-.92.32-1.92 0-2.84a.768.768 0 0 0-.63-.35.677.677 0 0 0-.58.31 2.768 2.768 0 0 0-.27 1.46Zm4.49 0a3.828 3.828 0 0 1 .16-1.24c.083-.281.246-.531.47-.72.221-.175.498-.264.78-.25a1.171 1.171 0 0 1 1.04.54c.123.198.214.414.27.64.069.329.103.664.1 1a4.19 4.19 0 0 1-.16 1.23 1.495 1.495 0 0 1-.47.72 1.321 1.321 0 0 1-1.76-.19 2.835 2.835 0 0 1-.43-1.76v.03Zm.54 0c-.042.487.044.977.25 1.42a.75.75 0 0 0 .62.35.73.73 0 0 0 .61-.35 4.162 4.162 0 0 0 0-2.84.741.741 0 0 0-.62-.35.647.647 0 0 0-.331.078.653.653 0 0 0-.249.232 2.751 2.751 0 0 0-.28 1.46Zm6.49 2.13h-.53v-3.38a3.109 3.109 0 0 1-.5.36 4.18 4.18 0 0 1-.56.28v-.52c.279-.135.541-.303.78-.5.192-.162.351-.359.47-.58h.34v4.34Zm5 0h-.53v-3.38a3.109 3.109 0 0 1-.5.36 4.18 4.18 0 0 1-.56.28v-.52c.277-.132.536-.3.77-.5.198-.159.361-.356.48-.58h.34v4.34Zm3-2.13a4.187 4.187 0 0 1 .15-1.24 1.56 1.56 0 0 1 .47-.72 1.26 1.26 0 0 1 .978-.251 1.273 1.273 0 0 1 .852.541c.12.198.208.414.26.64.074.328.108.664.1 1 .013.416-.041.831-.16 1.23a1.55 1.55 0 0 1-.46.72 1.21 1.21 0 0 1-.79.25 1.183 1.183 0 0 1-1-.44 2.904 2.904 0 0 1-.42-1.76l.02.03Zm.54 0c-.047.487.039.978.25 1.42a.725.725 0 0 0 .61.35.746.746 0 0 0 .62-.35 4.162 4.162 0 0 0 0-2.84.75.75 0 0 0-.62-.35.678.678 0 0 0-.59.31 2.768 2.768 0 0 0-.27 1.46Zm6.49 2.13h-.54v-3.38a2.423 2.423 0 0 1-.5.36 3.659 3.659 0 0 1-.56.28v-.52c.282-.13.544-.298.78-.5.192-.162.351-.359.47-.58h.35v4.34Zm3-2.13a3.828 3.828 0 0 1 .16-1.24c.083-.281.246-.531.47-.72.221-.175.498-.264.78-.25a1.171 1.171 0 0 1 1.04.54c.119.2.21.415.27.64.069.329.103.664.1 1a4.19 4.19 0 0 1-.16 1.23 1.495 1.495 0 0 1-.47.72 1.321 1.321 0 0 1-1.76-.19 2.835 2.835 0 0 1-.43-1.76v.03Zm.54 0c-.042.487.044.977.25 1.42a.75.75 0 0 0 .62.35.73.73 0 0 0 .61-.35 4.162 4.162 0 0 0 0-2.84.741.741 0 0 0-.62-.35.647.647 0 0 0-.331.078.653.653 0 0 0-.249.232c-.23.45-.327.957-.28 1.46Zm6.49 2.13h-.53v-3.38a3.109 3.109 0 0 1-.5.36 4.18 4.18 0 0 1-.56.28v-.52c.279-.135.541-.303.78-.5.192-.162.351-.359.47-.58h.34v4.34Zm-65.49 6.75h-.53v-3.39c-.153.145-.324.27-.51.37a3.139 3.139 0 0 1-.56.27v-.51c.284-.13.547-.302.78-.51.194-.158.357-.352.48-.57h.34v4.34Zm5 0h-.53v-3.39c-.153.145-.324.27-.51.37a3.52 3.52 0 0 1-.56.27v-.51c.284-.13.547-.302.78-.51.192-.158.351-.352.47-.57h.35v4.34Zm3-2.14a3.764 3.764 0 0 1 .16-1.23c.083-.281.246-.531.47-.72.221-.175.498-.264.78-.25.212-.007.422.041.61.14a1 1 0 0 1 .43.4c.123.198.214.414.27.64.07.329.103.664.1 1 .01.416-.044.831-.16 1.23-.08.285-.243.54-.47.73a1.18 1.18 0 0 1-.78.25 1.194 1.194 0 0 1-1-.44 2.865 2.865 0 0 1-.43-1.77l.02.02Zm.55 0a2.83 2.83 0 0 0 .24 1.42.755.755 0 0 0 .62.35.717.717 0 0 0 .61-.36 4.133 4.133 0 0 0 0-2.83.71.71 0 0 0-.62-.35.647.647 0 0 0-.331.078.653.653 0 0 0-.249.232 2.768 2.768 0 0 0-.27 1.46Zm6.48 2.13h-.53v-3.39c-.149.145-.317.27-.5.37a4.007 4.007 0 0 1-.56.27v-.51c.283-.132.546-.304.78-.51.192-.158.351-.352.47-.57h.34v4.34Zm5 0h-.53v-3.39a2.589 2.589 0 0 1-.5.37 4.007 4.007 0 0 1-.56.27v-.51c.282-.134.544-.306.78-.51.192-.158.351-.352.47-.57h.67v4.34h-.33Zm3-2.14c-.012-.415.038-.83.15-1.23a1.56 1.56 0 0 1 .47-.72 1.367 1.367 0 0 1 1.39-.11c.18.091.332.229.44.4.12.198.208.414.26.64.075.328.108.664.1 1 .015.416-.039.832-.16 1.23-.08.282-.24.536-.46.73a1.337 1.337 0 0 1-1.77-.19 2.934 2.934 0 0 1-.42-1.77v.02Zm.54 0c-.047.487.039.978.25 1.42a.705.705 0 0 0 .615.355.712.712 0 0 0 .615-.355 4.133 4.133 0 0 0 0-2.83.744.744 0 0 0-.264-.256.74.74 0 0 0-.692-.016.675.675 0 0 0-.254.232 2.768 2.768 0 0 0-.27 1.46v-.01Zm6.49 2.13h-.53v-3.39c-.153.145-.324.27-.51.37a3.52 3.52 0 0 1-.56.27v-.51c.284-.13.547-.302.78-.51.192-.158.351-.352.47-.57h.65v4.34h-.3Zm3-2.14a3.764 3.764 0 0 1 .16-1.23c.083-.281.246-.531.47-.72.221-.175.498-.264.78-.25.212-.007.422.041.61.14.177.092.326.23.43.4.123.198.214.414.27.64.07.329.103.664.1 1 .01.416-.044.831-.16 1.23-.08.285-.243.54-.47.73a1.18 1.18 0 0 1-.78.25 1.194 1.194 0 0 1-1-.44 2.865 2.865 0 0 1-.43-1.77l.02.02Zm.54 0c-.042.487.044.977.25 1.42a.75.75 0 0 0 .62.35.717.717 0 0 0 .61-.36 4.133 4.133 0 0 0 0-2.83.71.71 0 0 0-.62-.35.647.647 0 0 0-.331.078.653.653 0 0 0-.249.232 2.751 2.751 0 0 0-.28 1.46Zm6.49 2.13h-.53v-3.39a2.589 2.589 0 0 1-.5.37 4.007 4.007 0 0 1-.56.27v-.51c.282-.134.544-.306.78-.51.192-.158.351-.352.47-.57h.34v4.34Zm3-2.14c-.012-.415.038-.83.15-1.23.09-.277.252-.526.47-.72a1.2 1.2 0 0 1 .78-.25c.215-.008.429.04.62.14.177.092.326.23.43.4.12.198.208.414.26.64.075.328.108.664.1 1 .012.415-.038.83-.15 1.23a1.553 1.553 0 0 1-.47.73 1.337 1.337 0 0 1-1.77-.19 2.934 2.934 0 0 1-.42-1.77v.02Zm.54 0c-.047.487.039.978.25 1.42a.747.747 0 0 0 .61.35.736.736 0 0 0 .62-.36 4.133 4.133 0 0 0 0-2.83.744.744 0 0 0-.264-.256.74.74 0 0 0-.692-.016.675.675 0 0 0-.254.232 2.768 2.768 0 0 0-.27 1.46Zm6.49 2.13h-.53v-3.39c-.153.145-.324.27-.51.37a3.139 3.139 0 0 1-.56.27v-.51c.284-.13.547-.302.78-.51.194-.158.357-.352.48-.57h.34v4.34Zm3-2.14c-.01-.416.044-.831.16-1.23a1.56 1.56 0 0 1 .47-.72 1.367 1.367 0 0 1 1.39-.11 1 1 0 0 1 .43.4c.127.196.218.413.27.64.075.328.108.664.1 1 .015.416-.039.832-.16 1.23-.08.285-.243.54-.47.73a1.163 1.163 0 0 1-.78.25 1.194 1.194 0 0 1-1-.44 2.865 2.865 0 0 1-.43-1.77l.02.02Zm.55 0c-.047.487.039.978.25 1.42a.725.725 0 0 0 .61.35.744.744 0 0 0 .62-.36c.32-.916.32-1.914 0-2.83a.732.732 0 0 0-.63-.35.677.677 0 0 0-.58.31 2.768 2.768 0 0 0-.27 1.46Zm6.48 2.13h-.53v-3.39c-.149.145-.317.27-.5.37a4.007 4.007 0 0 1-.56.27v-.51c.284-.13.547-.302.78-.51.192-.158.351-.352.47-.57h.34v4.34Zm5 0h-.53v-3.39a2.589 2.589 0 0 1-.5.37 4.007 4.007 0 0 1-.56.27v-.51c.282-.134.544-.306.78-.51.192-.158.351-.352.47-.57h.34v4.34Z" fill="#CCCDCF"/><path fill-rule="evenodd" clip-rule="evenodd" d="M197.52 99.44a11.59 11.59 0 1 1-12.65 10.42 11.599 11.599 0 0 1 12.65-10.42Z" fill="#fff"/><path fill-rule="evenodd" clip-rule="evenodd" d="M196.17 105.73a5.257 5.257 0 0 1 4.526 3.698 5.26 5.26 0 1 1-10.266 1.032 5.269 5.269 0 0 1 5.74-4.73Z" fill="#E69C24"/><path fill-rule="evenodd" clip-rule="evenodd" d="M201.29 93.46a18.397 18.397 0 0 1 5.61 3l5.1-4.22a.101.101 0 0 1 .07-.029c.026 0 .051.01.07.029l4.74 5.76a.091.091 0 0 1 .021.03.106.106 0 0 1 .007.035.106.106 0 0 1-.007.035.091.091 0 0 1-.021.03l-5.1 4.2a18.609 18.609 0 0 1 2 6.12l6.62.64a.093.093 0 0 1 .064.033.097.097 0 0 1 .026.067l-.72 7.43a.104.104 0 0 1-.011.038.121.121 0 0 1-.025.03.104.104 0 0 1-.074.022l-6.45-.63a18.268 18.268 0 0 1-3.48 6.58l4.31 5.22a.111.111 0 0 1 0 .14l-5.75 4.74a.103.103 0 0 1-.07.029.103.103 0 0 1-.07-.029l-4.39-5.33a18.353 18.353 0 0 1-5.9 1.78l-.61 6.33a.12.12 0 0 1-.11.09l-7.43-.72a.099.099 0 0 1-.037-.011.087.087 0 0 1-.028-.026.086.086 0 0 1-.015-.073l.6-6.23a18.285 18.285 0 0 1-6.23-3.29l-4.88 4a.103.103 0 0 1-.07.029.103.103 0 0 1-.07-.029l-4.74-5.76a.081.081 0 0 1-.021-.03.104.104 0 0 1-.007-.035c0-.012.003-.024.007-.035a.081.081 0 0 1 .021-.03l4.92-4a18.084 18.084 0 0 1-1.89-6.17l-6.31-.61a.095.095 0 0 1-.037-.008.073.073 0 0 1-.03-.022.08.08 0 0 1-.019-.032.099.099 0 0 1-.004-.038l.72-7.43a.093.093 0 0 1 .033-.064.097.097 0 0 1 .067-.026l6.25.61a18.438 18.438 0 0 1 2.71-5.43L176.43 95a.102.102 0 0 1-.029-.07c0-.026.011-.051.029-.07l5.76-4.74a.079.079 0 0 1 .03-.02.088.088 0 0 1 .07 0 .079.079 0 0 1 .03.02l4 4.87a18.19 18.19 0 0 1 7.34-2.37l.6-6.22a.099.099 0 0 1 .11-.09l7.42.72a.104.104 0 0 1 .038.011.102.102 0 0 1 .03.025.104.104 0 0 1 .022.074l-.61 6.31.02.01Zm-4.64 5.9a11.643 11.643 0 0 0-11.392 6.12 11.64 11.64 0 1 0 21.862 6.59 11.648 11.648 0 0 0-10.47-12.71Z" fill="#00BAFF"/><path d="M204.84 103.52a11.547 11.547 0 0 1 1.82 3.23m.72 3.89c.1.82 0 .4 0 1.26a11.638 11.638 0 0 1-20.57 6.277 11.64 11.64 0 0 1 10.1-18.987c2.37.23 3.48.41 5.2 1.81m-.62-7.71c1.01.21 3.935 1.681 5.62 3l5.13-4.23a.101.101 0 0 1 .07-.029c.026 0 .051.01.07.029l4.75 5.76a.111.111 0 0 1 0 .14l-5.1 4.2a18.007 18.007 0 0 1 2 6.11l6.62.64c.014 0 .027.002.04.008a.096.096 0 0 1 .032.025.087.087 0 0 1 .018.077l-.71 7.42a.12.12 0 0 1-.11.09l-6.45-.62a18.624 18.624 0 0 1-3.48 6.57l4.3 5.22a.111.111 0 0 1 0 .14l-5.76 4.74a.103.103 0 0 1-.07.029.103.103 0 0 1-.07-.029l-4.39-5.33a18.47 18.47 0 0 1-5.9 1.79l-.61 6.32a.104.104 0 0 1-.011.038.121.121 0 0 1-.025.03.104.104 0 0 1-.074.022l-7.42-.72a.095.095 0 0 1-.037-.008.073.073 0 0 1-.03-.022.08.08 0 0 1-.019-.032.099.099 0 0 1-.004-.038l.6-6.24a18.285 18.285 0 0 1-6.23-3.29l-4.88 4a.081.081 0 0 1-.03.021.104.104 0 0 1-.035.007.104.104 0 0 1-.035-.007.081.081 0 0 1-.03-.021l-4.75-5.75a.103.103 0 0 1-.029-.07c0-.026.011-.051.029-.07l4.91-4a18.525 18.525 0 0 1-1.89-6.17l-6.31-.6a.12.12 0 0 1-.09-.11l.72-7.43a.104.104 0 0 1 .011-.038.121.121 0 0 1 .025-.03.104.104 0 0 1 .074-.022l6.25.61a18.187 18.187 0 0 1 2.71-5.43l-4.22-5.12a.091.091 0 0 1-.021-.03.106.106 0 0 1-.007-.035c0-.012.003-.024.007-.035a.091.091 0 0 1 .021-.03L182.4 90a.101.101 0 0 1 .07-.029c.026 0 .051.01.07.029l4 4.86a18.345 18.345 0 0 1 7.33-2.37l.6-6.22a.12.12 0 0 1 .11-.09l7.42.72a.091.091 0 0 1 .072.033c.009.01.015.023.018.036a.093.093 0 0 1 0 .041L201.5 93l-.01.29Z" stroke="#4B4B4D" stroke-width="2.68" stroke-miterlimit="16.38" stroke-linecap="round"/><path clip-rule="evenodd" d="M50 124.469A2.499 2.499 0 1 0 47.5 127a2.505 2.505 0 0 0 2.316-1.566c.124-.307.187-.635.184-.965Z" stroke="#E59A24" stroke-width="2.83" stroke-miterlimit="22.93"/><path fill-rule="evenodd" clip-rule="evenodd" d="M56.999 127.387a1.496 1.496 0 0 0-1.004-1.304 1.502 1.502 0 0 0-1.312 2.674c.245.16.531.244.824.243a1.56 1.56 0 0 0 1.492-1.613Z" fill="#B2B4B5"/><path clip-rule="evenodd" d="M190 34.973a2 2 0 1 0-1.224 1.867A2.008 2.008 0 0 0 190 34.973Z" stroke="#E59A24" stroke-width="2.83" stroke-miterlimit="22.93"/><path clip-rule="evenodd" d="M196 24.454A3.5 3.5 0 1 0 192.5 28a3.535 3.535 0 0 0 3.5-3.546Z" stroke="#30B3E7" stroke-width="4.12" stroke-miterlimit="22.93"/></g><defs><clipPath id="a"><path fill="#fff" d="M0 0h266.17v158.74H0z"/></clipPath></defs></svg>