<svg width="60" height="50" fill="none" xmlns="http://www.w3.org/2000/svg">
<style>path { fill: #1E4158; } @media (prefers-color-scheme: dark) { path { fill: white; } }</style>
<path d="M39.007 21.904c-1.094 2.403-1.06 6.16-2.42 8.303-1.64-1.16-3.116-2.873-4.84-3.834 0-2.85.012-3.392-1.231-5.077-3.066-4.154-10.076-2.408-10.264 3.155-.066 1.867.364 1.994-.486 3.32-1.923 2.988-1.696 1.652-3.9 2.292-1.807.525-.238.536-4.376-1.773C11.49 18.766 0 20.435 0 26.694v.105c0 2.187.06 3.762 1.762 5.38 3.138 2.989 5.757.624 7.093 1.105l4.005 2.497c.735.735 1.166 2.701 3.238 3.309 2.193.646 4.375-.354 5.286-2.27 1.039-2.182-.187-1.68 1.945-4.652.337-.475.569-.867.862-1.326 2.375 1.205 3.242-.63 4.474.078l3.221 2.657c2.63 2.11 1.64 5.889 6.215 5.889 1.812 0 4.231-1.812 4.231-4.47 0-6.745-.199-2.872 1.503-10.225.768-3.292.884-1.37 2.823-3.408 5.325-5.574-2.464-13.673-7.878-8.96-2.79 2.43-2.701 7.43.227 9.501Z" fill="#1E4158"/><path d="M12.396 22.545c0 1.59.254 3.828 2.42 3.828 4.63 0 1.1-5.806 7.077-13.915 6.828-9.265 23.494-9.79 29.963 3.861 3.342 7.044 2.022 14.993-2.519 20.96-2.337 3.07-7.839 6.335-11.844 6.335-3.955 0-5.132.277-8.944-1.408-1.116-.492-3.9-2.425-4.662-2.425-1.934 0-2.718 1.563-2.718 3.513 0 1.73 3.817 3.525 5.137 4.149 5.541 2.618 12.419 2.552 18.104.281 2.7-1.077 3.568-2.082 5.485-3.154.74 1.171 4.524 5.43 6.044 5.43 1.497 0 2.723-1.298 2.723-2.872 0-1.624-1.326-2.52-2.193-3.436-.906-.95-1.64-2.265-2.95-2.63 1.392-2.773 3.513-4.657 4.784-9.64 6.806-26.72-26.632-43.934-42.327-20.108-1.442 2.193-3.58 7.602-3.58 11.23Z"/>
</svg>