<svg fill="#1e4158" xmlns="http://www.w3.org/2000/svg" xml:space="preserve" width="160" height="50" viewBox="0 0 28658 9051"><path class="fil0" d="M14005 6952c-268 0-510-63-726-188-215-126-385-297-511-514s-188-462-188-734 57-515 173-730c115-216 273-386 472-512 200-125 425-188 677-188 203 0 391 42 563 126 172 85 317 199 434 344V3161c0-79 25-143 74-191 50-48 113-72 189-72 79 0 143 24 191 72s72 112 72 191v2355c0 272-62 517-188 734s-295 388-509 514c-213 125-454 188-723 188zm0-465c176 0 332-42 470-126 138-85 246-201 325-349 80-148 119-313 119-496 0-186-39-351-119-495-79-145-187-260-325-344s-294-126-470-126c-172 0-328 42-467 126-140 84-250 199-331 344-81 144-121 309-121 495 0 183 40 348 121 496s191 264 331 349c139 84 295 126 467 126zm3528 465c-252 0-477-63-677-188-200-126-357-296-473-512-115-215-173-458-173-730s63-517 189-734 296-388 511-514c215-125 457-188 726-188 268 0 510 63 723 188 213 126 383 297 509 514 125 217 188 462 188 734h-201c0 272-58 515-173 730-116 216-273 386-473 512-199 125-425 188-676 188zm103-465c176 0 332-42 470-126 138-85 246-200 325-346 79-147 119-311 119-493 0-186-40-352-119-499-79-146-187-262-325-346s-294-126-470-126c-172 0-328 42-467 126-140 84-250 200-331 346-81 147-121 313-121 499 0 182 40 346 121 493 81 146 191 261 331 346 139 84 295 126 467 126zm1157 450c-76 0-139-25-189-75s-75-113-75-189v-790l99-547 428 186v1151c0 76-25 139-75 189s-112 75-188 75zm2076-5c-172 0-327-44-465-132-137-88-246-208-325-359-79-152-119-322-119-511V3466c0-76 24-138 72-186 49-48 111-72 186-72 76 0 138 24 186 72s73 110 73 186v2464c0 137 37 253 113 346s169 139 279 139h176c62 0 114 24 157 72 43 49 65 111 65 186 0 76-29 138-85 186-57 48-130 73-220 73h-93zm-1146-2278c-73 0-131-21-176-62s-67-93-67-155c0-69 22-124 67-165 45-42 103-62 176-62h1193c72 0 130 20 175 62 45 41 67 96 67 165 0 62-22 114-67 155s-103 62-175 62h-1193zm2840 2278c-55 0-106-17-152-50-47-32-79-73-96-121l-764-2293c-28-107-27-194 2-261 30-67 94-101 194-101 65 0 120 19 163 55s78 97 106 183l650 2035h-180l614-2076c17-59 47-106 88-142s98-55 170-55c69 0 125 19 168 55s72 83 86 142l501 1952h-78l610-1911c48-158 137-238 268-238 96 0 162 34 196 101 35 67 33 154-5 261l-764 2293c-14 48-43 89-88 121-45 33-96 50-155 50-55 0-107-17-155-50-48-32-79-73-93-121l-532-1968h52l-558 1968c-14 48-44 89-90 121-47 33-99 50-158 50zm3424 0c-75 0-138-25-188-75s-75-113-75-189V4370c0-79 25-143 75-191s113-73 188-73c80 0 143 25 191 73 49 48 73 112 73 191v2298c0 76-24 139-73 189-48 50-111 75-191 75zm0-3285c-93 0-173-34-240-101s-100-147-100-240 33-173 100-240 147-101 240-101 173 34 241 101c67 67 100 147 100 240s-33 173-100 240c-68 67-148 101-241 101zm2273 3285c-172 0-327-44-465-132s-246-208-325-359c-80-152-119-322-119-511V3466c0-76 24-138 72-186s110-72 186-72 138 24 186 72 72 110 72 186v2464c0 137 38 253 114 346s169 139 279 139h175c62 0 115 24 158 72 43 49 65 111 65 186 0 76-29 138-86 186-56 48-130 73-219 73h-93zm-1147-2278c-72 0-131-21-175-62-45-41-67-93-67-155 0-69 22-124 67-165 44-42 103-62 175-62h1193c73 0 131 20 176 62 45 41 67 96 67 165 0 62-22 114-67 155s-103 62-176 62h-1193z"/><path class="fil1" d="M7061 3965c-198 435-192 1115-438 1503-297-210-564-520-876-694 0-516 2-614-223-919-555-752-1824-436-1858 571-12 338 66 361-88 601-348 541-307 299-706 415-327 95-43 97-792-321C2080 3397 0 3699 0 4832v19c0 396 11 681 319 974 568 541 1042 113 1284 200l725 452c133 133 211 489 586 599 397 117 792-64 957-411 188-395-34-304 352-842 61-86 103-157 156-240 430 218 587-114 810 14l583 481c476 382 297 1066 1125 1066 328 0 766-328 766-809 0-1221-36-520 272-1851 139-596 160-248 511-617 964-1009-446-2475-1426-1622-505 440-489 1345 41 1720z"/><path class="fil1" d="M2244 4081c0 288 46 693 438 693 838 0 199-1051 1281-2519C5199 578 8216 483 9387 2954c605 1275 366 2714-456 3794-423 556-1419 1147-2144 1147-716 0-929 50-1619-255-202-89-706-439-844-439-350 0-492 283-492 636 0 313 691 638 930 751 1003 474 2248 462 3277 51 489-195 646-377 993-571 134 212 819 983 1094 983 271 0 493-235 493-520 0-294-240-456-397-622-164-172-297-410-534-476 252-502 636-843 866-1745 1232-4837-4821-7953-7662-3640-261 397-648 1376-648 2033z"/></svg>