<svg viewBox="0 0 267 159" fill="none" xmlns="http://www.w3.org/2000/svg"><g clip-path="url(#a)"><path d="M266.17 0H0v158.74h266.17V0Z" fill="#fff"/><path fill-rule="evenodd" clip-rule="evenodd" d="M151.172 134.346 149.8 116h-22.56l-1.373 18.346A18.265 18.265 0 0 1 120 145.941V146h37v-.059a18.27 18.27 0 0 1-5.828-11.595Z" fill="#EAEAEC"/><path opacity=".28" fill-rule="evenodd" clip-rule="evenodd" d="M130.574 120 130 130h17l-.574-10h-15.852Z" fill="#B9C2D3" stroke="#B9C2D3" stroke-width="2.45" stroke-linecap="round" stroke-linejoin="round"/><path clip-rule="evenodd" d="M151.42 136.706 150.13 122h-21.32l-1.29 14.706c-.3 3.408-2.33 6.677-5.52 9.294h35c-3.24-2.617-5.27-5.886-5.58-9.294Z" stroke="#4B4B4D" stroke-width="5.67" stroke-linecap="round" stroke-linejoin="round"/><path opacity=".15" fill-rule="evenodd" clip-rule="evenodd" d="M237.087 24h-.174a.877.877 0 0 1-.646-.293A1.051 1.051 0 0 1 236 23c0-.265.096-.52.267-.707a.877.877 0 0 1 .646-.293h.174c.242 0 .474.105.646.293.171.187.267.442.267.707 0 .265-.096.52-.267.707a.877.877 0 0 1-.646.293Z" fill="#002B36"/><path opacity=".15" fill-rule="evenodd" clip-rule="evenodd" d="M245 24h-3.841a.989.989 0 0 1-.679-.267.886.886 0 0 1-.281-.643c0-.241.101-.472.281-.643a.99.99 0 0 1 .679-.267h1.921v-9.315h-30.15v9.28h17.514c.254 0 .499.095.679.266.18.17.281.402.281.643a.886.886 0 0 1-.281.643.989.989 0 0 1-.679.267H211V11h34v13Z" fill="#002B36"/><path opacity=".15" fill-rule="evenodd" clip-rule="evenodd" d="M234.211 24h-1.422a.717.717 0 0 1-.558-.293A1.15 1.15 0 0 1 232 23c0-.265.083-.52.231-.707a.717.717 0 0 1 .558-.293h1.422c.209 0 .41.105.558.293.148.187.231.442.231.707 0 .265-.083.52-.231.707a.717.717 0 0 1-.558.293ZM218.433 48H211V34h22.113c.235 0 .461.103.627.286.167.184.26.432.26.692 0 .259-.093.508-.26.691a.847.847 0 0 1-.627.286h-20.33v9.972h5.65c.235 0 .461.103.627.287.167.183.26.432.26.691 0 .26-.093.508-.26.691a.847.847 0 0 1-.627.287V48Z" fill="#002B36"/><path opacity=".15" fill-rule="evenodd" clip-rule="evenodd" d="M224.113 48h-3.226a.837.837 0 0 1-.627-.293A1.065 1.065 0 0 1 220 47c0-.265.093-.52.26-.707a.837.837 0 0 1 .627-.293h3.226c.236 0 .461.105.627.293.167.187.26.442.26.707 0 .265-.093.52-.26.707a.837.837 0 0 1-.627.293Z" fill="#002B36"/><path opacity=".15" fill-rule="evenodd" clip-rule="evenodd" d="M226.043 48h-.086a.938.938 0 0 1-.677-.293A1.025 1.025 0 0 1 225 47c0-.265.101-.52.28-.707a.938.938 0 0 1 .677-.293h.086c.254 0 .497.105.677.293.179.187.28.442.28.707 0 .265-.101.52-.28.707a.938.938 0 0 1-.677.293ZM244.968 48h-15.895c-.285 0-.558-.104-.759-.288a.945.945 0 0 1-.314-.696c0-.26.113-.511.314-.695.201-.185.474-.289.759-.289h13.739V35.968h-4.773c-.284 0-.557-.104-.758-.289a.945.945 0 0 1-.314-.695c0-.261.113-.511.314-.696.201-.184.474-.288.758-.288H245l-.032 14ZM227 36h-34V22h34v14Zm-32.07-1.957h30.14V24.035h-30.14v10.008Z" fill="#002B36"/><path fill-rule="evenodd" clip-rule="evenodd" d="M211.631 123H70.359a5.397 5.397 0 0 1-3.775-1.524A5.214 5.214 0 0 1 65 117.779V28.212a5.217 5.217 0 0 1 1.588-3.692A5.397 5.397 0 0 1 70.359 23h141.272a5.398 5.398 0 0 1 3.778 1.517A5.217 5.217 0 0 1 217 28.212v89.567a5.152 5.152 0 0 1-.412 2.01 5.23 5.23 0 0 1-1.167 1.699 5.326 5.326 0 0 1-1.742 1.129 5.409 5.409 0 0 1-2.048.383Z" fill="#EAEAEC"/><path clip-rule="evenodd" d="M209.892 122H75.127a5.204 5.204 0 0 1-3.643-1.553A5.16 5.16 0 0 1 70 116.789V27.221a5.17 5.17 0 0 1 1.483-3.662A5.216 5.216 0 0 1 75.127 22h134.756a5.214 5.214 0 0 1 3.637 1.562 5.174 5.174 0 0 1 1.48 3.66v89.567a5.12 5.12 0 0 1-1.468 3.66 5.167 5.167 0 0 1-3.64 1.551v0Z" stroke="#4B4B4D" stroke-width="5.67" stroke-linecap="round" stroke-linejoin="round"/><path d="M203 34H82v71h121V34Z" fill="#fff"/><path opacity=".6" fill-rule="evenodd" clip-rule="evenodd" d="M159 49v43.488c0 1.385 1.546 2.512 3.429 2.512h81.142c1.883 0 3.429-1.127 3.429-2.512V49h-88Z" fill="#C6C8C8" stroke="#C6C8C8" stroke-width="3.45" stroke-linecap="round" stroke-linejoin="round"/><path d="M203 34H82v73h121V34Z" stroke="#4B4B4D" stroke-width="5.98" stroke-linecap="round" stroke-linejoin="round"/><path d="M132 113h11" stroke="#4B4B4D" stroke-width="2.45" stroke-linecap="round" stroke-linejoin="round"/><path fill-rule="evenodd" clip-rule="evenodd" d="M240.601 91h-80.212c-1.864 0-3.389-.917-3.389-2.042V51.052c0-1.135 1.525-2.052 3.389-2.052h80.212c1.874 0 3.399.917 3.399 2.052v37.975c.01 1.075-1.525 1.973-3.399 1.973Z" fill="#fff"/><path fill-rule="evenodd" clip-rule="evenodd" d="M243.961 62H157v-8.546c-.008-1.17.346-2.295.983-3.13s1.506-1.31 2.416-1.324h80.211c.909.016 1.775.494 2.41 1.329.636.834.988 1.958.98 3.125L243.961 62Z" fill="#B2B4B5"/><path fill-rule="evenodd" clip-rule="evenodd" d="M166 55.954A2.001 2.001 0 1 0 164 58a2.023 2.023 0 0 0 2-2.046ZM172 55.954A2.001 2.001 0 1 0 170 58a2.023 2.023 0 0 0 2-2.046ZM178 55.954A2.001 2.001 0 1 0 176 58a2.023 2.023 0 0 0 2-2.046Z" fill="#414042"/><path clip-rule="evenodd" d="M240.601 91h-80.212c-1.864 0-3.389-.917-3.389-2.042V51.052c0-1.135 1.525-2.052 3.389-2.052h80.212c1.874 0 3.399.917 3.399 2.052v37.975c.01 1.075-1.525 1.973-3.399 1.973Z" stroke="#4B4B4D" stroke-width="4.25" stroke-linecap="round" stroke-linejoin="round"/><path d="M203 82h20M204 66h26M201 74h8M216 74h23" stroke="#D0CFCE" stroke-width="3.69" stroke-miterlimit="22.93" stroke-linecap="round"/><path d="m52 96 1-8M62 102l1-8" stroke="#E2F0D8" stroke-width="2.48" stroke-linecap="round" stroke-linejoin="round"/><path d="M51 72c.148-1.272.376-2.537.682-3.788.09-.395.204-.818.318-1.212" stroke="#fff" stroke-width="2.48" stroke-linecap="round" stroke-linejoin="round"/><path fill-rule="evenodd" clip-rule="evenodd" d="M64.804 112.743s-23.175-3.299-26.45-44.376c0 0 26.528 5.686 34.302 38.216l-7.852 6.16Z" fill="#EAEAEC"/><path d="M41.057 84.48a88.568 88.568 0 0 1-2.58-15.506c-.399-5.229 25.917 5.368 33.661 37.564" stroke="#4B4B4D" stroke-width="3.3" stroke-linecap="round" stroke-linejoin="round"/><path d="M40.386 81.466a37.241 37.241 0 0 1-1.036-5.03" stroke="#fff" stroke-width="2.49" stroke-linecap="round" stroke-linejoin="round"/><path d="M47.046 97.368a53.505 53.505 0 0 1-4.126-9.097M55.125 108.404a52.823 52.823 0 0 1-6.065-7.955" stroke="#4B4B4D" stroke-width="3.3" stroke-linecap="round" stroke-linejoin="round"/><path d="M52.454 86.513 44.66 75.58" stroke="#B2B4B5" stroke-width="2.51" stroke-linecap="round" stroke-linejoin="round"/><path d="m48.182 82.246-4.91.324M52.106 87.451l-4.919.313" stroke="#B2B4B5" stroke-width="2.48" stroke-linecap="round" stroke-linejoin="round"/><path clip-rule="evenodd" d="M52 35.973A2 2 0 1 0 50.009 38a2.01 2.01 0 0 0 1.99-2.027Z" stroke="#E59A24" stroke-width="2.83" stroke-miterlimit="22.93"/><path clip-rule="evenodd" d="M58 25.454A3.5 3.5 0 1 0 54.5 29a3.537 3.537 0 0 0 3.5-3.546Z" stroke="#30B3E7" stroke-width="4.12" stroke-miterlimit="22.93"/><path clip-rule="evenodd" d="M203 8.938a3.997 3.997 0 0 0-2.512-3.651A4.001 4.001 0 1 0 199 13a4.029 4.029 0 0 0 4-4.063ZM217 135.454a3.496 3.496 0 0 0-2.192-3.2 3.502 3.502 0 0 0-3.799.787 3.495 3.495 0 0 0-.738 3.809A3.497 3.497 0 0 0 213.5 139a3.537 3.537 0 0 0 3.5-3.546Z" stroke="#E59A24" stroke-width="4.12" stroke-miterlimit="22.93"/><path d="M223 129a2 2 0 1 0 .001-3.999A2 2 0 0 0 223 129Z" fill="#B2B4B5"/><path fill-rule="evenodd" clip-rule="evenodd" d="M164.147 68.26v-.714h1.219v-2.778l-1.051.528-.283-.648 1.491-.648h.746v3.565h1.051v.694h-3.173Zm10.506.064-2.448-1.852 2.448-1.852.567.519-1.796 1.315 1.796 1.342-.567.51v.018Zm4.128-.065v-1.852h-1.702v1.852h-.893v-4.231h.893v1.703h1.618v-1.703h.893v4.231h-.809Zm3.751-3.583v3.583h-.914v-3.565h-1.387v-.666h3.52v.666l-1.219-.018Zm4.696 3.583-.084-2.407v-.926l-.231.639-.526 1.454h-.567l-.473-1.454-.199-.64v.927l-.137 2.407h-.756l.231-4.25h1.05l.421 1.204.199.685.2-.639.441-1.25h1.051l.231 4.25h-.851Zm1.67 0v-4.231h.904v3.565h1.985v.666h-2.889Zm4.654-3.62L196 66.49l-2.448 1.852-.567-.51 1.807-1.324-1.807-1.333.567-.519v-.018Zm-29.489 11.435v-.593l1.124-1c.21-.194.389-.351.515-.49.108-.114.206-.235.294-.361.058-.094.104-.194.137-.297a1.252 1.252 0 0 0 0-.287.816.816 0 0 0 0-.231.49.49 0 0 0-.137-.185.54.54 0 0 0-.21-.13.908.908 0 0 0-.284 0c-.182 0-.363.037-.525.111a2.16 2.16 0 0 0-.504.278l-.473-.537c.206-.171.444-.31.704-.408a2.05 2.05 0 0 1 .83-.157c.217-.003.434.025.641.083.178.045.343.124.483.232.139.105.247.239.315.389.075.17.111.353.105.537.004.163-.021.325-.073.481-.056.149-.13.292-.221.426a3.14 3.14 0 0 1-.357.417l-.483.435-.694.583h2.007v.741l-3.194-.037Zm10.506.065-2.448-1.852 2.448-1.852.567.519-1.797 1.315 1.839 1.398-.567.509-.042-.037Zm4.128-.065v-1.852h-1.618v1.852h-.893v-4.25h.893v1.704h1.618v-1.704h.893v4.25h-.893Zm1.912 0v-4.25h2.868v.676h-1.954v1.056h1.86v.657h-1.86v1.176h1.954v.685h-2.868Zm6.524 0-.252-.843h-1.67l-.263.843h-.893l1.429-4.25h1.25l1.418 4.25h-1.019Zm-1.05-3.481-.631 1.99h1.251l-.62-1.99Zm5.988 1.296c.009.313-.037.625-.137.926a1.63 1.63 0 0 1-.42.685c-.204.2-.46.352-.746.444-.336.108-.692.161-1.05.158h-1.208v-4.278h1.407c.324-.007.647.034.956.12.261.073.496.204.683.38.197.178.338.398.41.639.099.3.145.613.136.926h-.031Zm-.956.055a2.623 2.623 0 0 0-.063-.61 1.122 1.122 0 0 0-.21-.454.86.86 0 0 0-.399-.287 1.64 1.64 0 0 0-.61-.102h-.462v2.907h.399c.186.01.372-.016.544-.076.173-.061.328-.155.454-.276.261-.319.384-.71.347-1.102Zm2.427-1.49 2.448 1.852-2.448 1.851-.568-.509 1.807-1.324-1.807-1.333.568-.519v-.018Zm-26.264 10.12c.003.194-.04.386-.126.565a1.284 1.284 0 0 1-.41.426 1.993 1.993 0 0 1-.683.278 4.743 4.743 0 0 1-.966.092H164.074v-.694c.169.032.341.054.514.065.2.01.4.01.599 0 .171.016.344.016.515 0 .127-.024.248-.068.357-.13a.603.603 0 0 0 .21-.213.534.534 0 0 0-.21-.74 1.524 1.524 0 0 0-.357-.121 2.877 2.877 0 0 0-.525 0h-.526V81.5h.484c.157.017.315.017.472 0 .107-.03.206-.078.295-.139a.45.45 0 0 0 .157-.204.63.63 0 0 0 .053-.24.448.448 0 0 0-.189-.398 1.095 1.095 0 0 0-.589-.13 3.916 3.916 0 0 0-.567 0c-.179 0-.368.074-.567.13v-.667l.315-.084.294-.055h.62c.234-.002.467.023.693.074.179.04.348.113.494.213a.882.882 0 0 1 .305.333c.071.14.107.292.105.445a.937.937 0 0 1-.2.63c-.143.163-.336.289-.557.36.144.025.285.062.42.112.116.054.222.122.316.203a.931.931 0 0 1 .273.658v-.167Zm7.354 1.361-2.448-1.852 2.448-1.852.567.519-1.797 1.315 1.797 1.342-.567.51v.018Zm1.744-.065v-4.25h1.544a2.33 2.33 0 0 1 1.208.25.9.9 0 0 1 .318.338.778.778 0 0 1 .092.43.978.978 0 0 1 0 .306 1.42 1.42 0 0 1-.126.287 1.189 1.189 0 0 1-.221.223.989.989 0 0 1-.305.148c.117.02.23.054.337.102.106.054.201.123.283.203a.958.958 0 0 1 .263.658c.005.177-.037.354-.122.514-.086.161-.213.302-.372.412a2.455 2.455 0 0 1-1.408.333l-1.491.046Zm2.227-3.092a.52.52 0 0 0 0-.222.354.354 0 0 0-.137-.158.766.766 0 0 0-.336-.102 1.382 1.382 0 0 0-.368 0h-.535v1.13h.535c.129.002.257-.017.379-.056a.641.641 0 0 0 .241-.13.412.412 0 0 0 .137-.184.564.564 0 0 0 0-.232l.084-.046Zm-.715 2.435c.128 0 .256-.015.379-.046.1-.031.192-.078.273-.14a.588.588 0 0 0 .168-.204.515.515 0 0 0 .052-.249.438.438 0 0 0-.053-.239.52.52 0 0 0-.178-.187 1.16 1.16 0 0 0-.704-.157h-.556v1.222h.619Zm6.083-1.49c.006.337-.043.674-.147 1a1.88 1.88 0 0 1-.42.684 1.531 1.531 0 0 1-.62.399c-.239.09-.497.135-.756.13a1.862 1.862 0 0 1-.788-.124 1.648 1.648 0 0 1-.631-.432 2.43 2.43 0 0 1-.472-1.62 2.865 2.865 0 0 1 .094-1c.085-.25.224-.483.41-.686.17-.172.382-.308.62-.398.241-.084.497-.128.756-.13.27-.016.54.026.787.123.248.097.464.245.631.433.351.481.517 1.05.473 1.62h.063Zm-.945 0a2.103 2.103 0 0 0-.232-1.121.706.706 0 0 0-.303-.285.84.84 0 0 0-.432-.085.897.897 0 0 0-.441.092.834.834 0 0 0-.305.278 1.38 1.38 0 0 0-.168.463 2.702 2.702 0 0 0-.063.62c-.022.387.057.774.231 1.13.07.12.178.218.31.284a.864.864 0 0 0 .436.086.951.951 0 0 0 .441-.102.725.725 0 0 0 .294-.277c.088-.142.149-.295.179-.454.018-.21.018-.42 0-.63h.053Zm4.979-.075a2.66 2.66 0 0 1-.136.926 1.644 1.644 0 0 1-.421.685c-.204.2-.46.352-.745.445-.337.107-.693.16-1.051.157h-1.219v-4.24h1.408c.324-.008.647.033.956.12.258.073.493.2.683.37a1.5 1.5 0 0 1 .41.648c.098.301.145.613.136.926l-.021-.037Zm-.956.056a2.622 2.622 0 0 0-.063-.611 1.109 1.109 0 0 0-.21-.454.857.857 0 0 0-.399-.287 1.634 1.634 0 0 0-.609-.102h-.452v2.907h.389c.185.01.371-.015.544-.076a1.28 1.28 0 0 0 .454-.275c.261-.32.384-.71.346-1.102Zm3.635.62v1.51h-.903V82.37l-1.555-2.777h.998l.704 1.314.315.64.326-.658.725-1.296h.956l-1.566 2.777v-.046Zm2.868-2.028L196 82.148 193.552 84l-.567-.51 1.807-1.342-1.807-1.333.567-.519Z" fill="#939291"/><path d="M60 147h197M24 147h32M11 147h8" stroke="#4B4B4D" stroke-width="3.67" stroke-linecap="round" stroke-linejoin="round"/><path d="M229 82h8" stroke="#D0CFCE" stroke-width="3.69" stroke-miterlimit="22.93" stroke-linecap="round"/><path fill-rule="evenodd" clip-rule="evenodd" d="M97.5 48.97V59c-1.681 0-3.325-.587-4.722-1.685-1.398-1.1-2.488-2.66-3.131-4.488a11.65 11.65 0 0 1-.484-5.778c.328-1.94 1.138-3.721 2.327-5.12 1.188-1.399 2.703-2.351 4.352-2.737a7.324 7.324 0 0 1 4.911.57c1.553.756 2.881 2.038 3.814 3.682C105.501 45.09 106 47.022 106 49l-8.5-.03Z" fill="#EAEAEC" stroke="#4B4B4D" stroke-width="2.45" stroke-miterlimit="22.93"/><path fill-rule="evenodd" clip-rule="evenodd" d="m102 53.07 9-.07a8.88 8.88 0 0 1-.659 3.425 8.921 8.921 0 0 1-1.93 2.913 9.02 9.02 0 0 1-2.908 1.958 9.06 9.06 0 0 1-3.442.704L102 53.07Z" fill="#4B4B4D" stroke="#4B4B4D" stroke-width="2.45" stroke-miterlimit="22.93"/><path d="M121.624 79h-6.248c-.208 0-.376.193-.376.431v16.138c0 .238.168.431.376.431h6.248c.208 0 .376-.193.376-.431V79.431c0-.238-.168-.431-.376-.431Z" fill="#E59A24"/><path d="M132.624 70h-6.248c-.208 0-.376.18-.376.402v25.196c0 .222.168.402.376.402h6.248c.208 0 .376-.18.376-.402V70.402c0-.222-.168-.402-.376-.402Z" fill="#30B3E7"/><path d="M143.57 65h-7.14c-.238 0-.43.176-.43.393v30.214c0 .217.192.393.43.393h7.14c.238 0 .43-.176.43-.393V65.393c0-.217-.192-.393-.43-.393Z" fill="#E59A24"/><path d="M105 96h45" stroke="#4B4B4D" stroke-width="2.45" stroke-miterlimit="22.93"/><path d="m113 67 5.116-6.605 3.239.744 6.898-7.48 3.725 2.051 6.833-5.71L145 56.826" stroke="#4B4B4D" stroke-width="2.45" stroke-miterlimit="16.38" stroke-linecap="round"/><g><path fill-rule="evenodd" clip-rule="evenodd" d="m70.224 110.614-8.222 1.004a34.558 34.558 0 0 1-4.498-3.455c-2.974-4.532-6.669-13.445-3.616-27.71l1.607.768c-3.974 21.069 6.97 29.974 6.97 29.974l7.824-.896a1.116 1.116 0 0 1-.065.315Z" fill="#D0CFCE"/><path fill-rule="evenodd" clip-rule="evenodd" d="M62.379 111.685s-17.677-14.596.583-51.016c0 0 19.235 18.235 9.14 49.791l-9.723 1.225Z" fill="#EAEAEC"/><path d="M57.072 74.533a89.573 89.573 0 0 1 2.698-7.846 93.793 93.793 0 0 1 3.17-7.08c1.144-2.312 19.74 18.422 9.645 50.661M62.95 111.043s-7.512-6.123-7.808-20.425" stroke="#4B4B4D" stroke-width="3.29" stroke-linecap="round" stroke-linejoin="round"/><path d="m63.876 86.875-5.813-2.322M68.978 110.167s-8.236-21.945-4.232-39.12M63.672 83.237l6.27-4.446M65.016 95.259l6.914-5.163" stroke="#B2B4B5" stroke-width="2.48" stroke-linecap="round" stroke-linejoin="round"/><path d="m58.714 70.36 1.816-4.598" stroke="#fff" stroke-width="2.13" stroke-linecap="round" stroke-linejoin="round"/><path d="M55.452 86.092c-.042-2.2.23-4.394.81-6.517" stroke="#4B4B4D" stroke-width="3.29" stroke-linecap="round" stroke-linejoin="round"/></g><g><path fill-rule="evenodd" clip-rule="evenodd" d="M81.359 126.755a18.016 18.016 0 0 1-2.542 8.979 18.165 18.165 0 0 1-6.702 6.528 18.302 18.302 0 0 1-18.135-.121 18.158 18.158 0 0 1-6.614-6.617 18.01 18.01 0 0 1-2.42-9.012c0-3.162.833-6.269 2.417-9.012a18.146 18.146 0 0 1 6.611-6.619H72.29a18.463 18.463 0 0 1 6.651 6.737 18.32 18.32 0 0 1 2.418 9.127v.01Z" fill="#E59A24"/><path fill-rule="evenodd" clip-rule="evenodd" d="M80.349 126.736a18.128 18.128 0 0 1-1.344 6.986 18.22 18.22 0 0 1-3.932 5.943 18.343 18.343 0 0 1-5.922 3.993c-2.22.932-4.6 1.42-7.01 1.437-.599.015-1.199-.015-1.794-.088a18.57 18.57 0 0 0 10.333-4.658 18.382 18.382 0 0 0 5.66-9.772c.812-3.766.415-7.69-1.134-11.22A18.447 18.447 0 0 0 67.7 110.9h3.608a18.455 18.455 0 0 1 6.631 6.733 18.31 18.31 0 0 1 2.409 9.112v-.009Z" fill="#C0802B"/><path opacity=".5" fill-rule="evenodd" clip-rule="evenodd" d="M77.506 126.58a18.36 18.36 0 0 1-5.383 12.978 18.583 18.583 0 0 1-13.02 5.439h-.138c-.61.015-1.219-.014-1.824-.087a18.579 18.579 0 0 0 10.538-4.551 18.387 18.387 0 0 0 5.81-9.852 18.305 18.305 0 0 0-1.154-11.361 18.446 18.446 0 0 0-7.673-8.499h3.666a18.442 18.442 0 0 1 6.733 6.747 18.302 18.302 0 0 1 2.445 9.186Z" fill="#EAEAEC"/><path clip-rule="evenodd" d="M81.359 126.755a18.016 18.016 0 0 1-2.542 8.979 18.165 18.165 0 0 1-6.702 6.528 18.302 18.302 0 0 1-18.135-.121 18.158 18.158 0 0 1-6.614-6.617 18.01 18.01 0 0 1-2.42-9.012c0-3.162.833-6.269 2.417-9.012a18.146 18.146 0 0 1 6.611-6.619H72.29a18.463 18.463 0 0 1 6.651 6.737 18.32 18.32 0 0 1 2.418 9.127v.01Z" stroke="#4B4B4D" stroke-width="3.29" stroke-linecap="round" stroke-linejoin="round"/><path d="M75.221 122.058a.616.616 0 0 0 .618-.614.616.616 0 0 0-.618-.614.616.616 0 0 0-.618.614c0 .339.277.614.618.614Z" fill="#8F8E91"/><path fill-rule="evenodd" clip-rule="evenodd" d="M73.456 117.332a2.01 2.01 0 0 0-.356-1.113 2.031 2.031 0 0 0-2.087-.833c-.392.082-.75.276-1.032.559a2.014 2.014 0 0 0-.426 2.195 2.033 2.033 0 0 0 1.872 1.238 2.056 2.056 0 0 0 1.44-.606c.38-.384.592-.902.59-1.44ZM74.653 121.366c0-.267-.107-.524-.298-.713a1.018 1.018 0 0 0-1.435 0 1.005 1.005 0 0 0 0 1.426 1.015 1.015 0 0 0 1.733-.713ZM68.77 119.388a.976.976 0 0 0-.605-.9.99.99 0 0 0-1.07.211.972.972 0 0 0 .15 1.499.986.986 0 0 0 1.237-.121.97.97 0 0 0 .288-.689Z" fill="#8F8E91"/><path d="M56.426 126.745h-6" stroke="#C1C5CA" stroke-width="6.58" stroke-linecap="round" stroke-linejoin="round"/><path fill-rule="evenodd" clip-rule="evenodd" d="M70.946 137.299a.974.974 0 0 0-.644-.858.979.979 0 0 0-1.3.747.97.97 0 0 0 .426.983.98.98 0 0 0 .538.161c.266-.013.517-.127.7-.32a1.02 1.02 0 0 0 .28-.713ZM68.485 141.791a.418.418 0 0 0-.421-.419.434.434 0 0 0-.367.424.428.428 0 0 0 .367.424.428.428 0 0 0 .422-.429Z" fill="#C1C5CA"/><path d="M68.172 140.076a.215.215 0 1 0 0-.429.215.215 0 1 0 0 .429Z" fill="#C1C5CA"/><path opacity=".6" fill-rule="evenodd" clip-rule="evenodd" d="M67.27 139.082a.214.214 0 0 0-.216-.214.213.213 0 0 0-.153.063.212.212 0 0 0 0 .303.217.217 0 0 0 .305 0 .214.214 0 0 0 .063-.152ZM68.505 138.088a.612.612 0 0 0-.381-.567.623.623 0 0 0-.673.133.612.612 0 0 0 .436 1.048.616.616 0 0 0 .618-.614ZM67.436 140.485a.608.608 0 0 0-.358-.636.62.62 0 0 0-.845.379.606.606 0 0 0-.022.257.61.61 0 0 0 .358.637.62.62 0 0 0 .845-.379.611.611 0 0 0 .022-.258Z" fill="#C1C5CA"/><path opacity=".5" fill-rule="evenodd" clip-rule="evenodd" d="M63.563 141.119a.222.222 0 0 0-.045-.188.232.232 0 0 0-.175-.083.233.233 0 0 0-.175.083.228.228 0 0 0-.046.188.224.224 0 0 0 .22.27.231.231 0 0 0 .098-.021.233.233 0 0 0 .122-.15.222.222 0 0 0 .001-.099Z" fill="#C1C5CA"/><path opacity=".5" d="M64.338 140.904a.615.615 0 0 0 .618-.613.616.616 0 0 0-.618-.614.616.616 0 0 0-.618.614c0 .339.277.613.618.613Z" fill="#C1C5CA"/><path opacity=".5" fill-rule="evenodd" clip-rule="evenodd" d="M63.485 142.464a.613.613 0 0 0-.613-.691.618.618 0 0 0-.59.433.611.611 0 0 0-.023.258.608.608 0 0 0 .359.636.62.62 0 0 0 .844-.379.61.61 0 0 0 .023-.257Z" fill="#C1C5CA"/></g></g><defs><clipPath id="a"><path fill="#fff" d="M0 0h266.17v158.74H0z"/></clipPath></defs></svg>