<svg viewBox="0 0 267 159" fill="none" xmlns="http://www.w3.org/2000/svg"><path d="M266.17 0H0v158.74h266.17V0Z" fill="#fff"/><path opacity=".15" fill-rule="evenodd" clip-rule="evenodd" d="M233.078 24h-.156a.887.887 0 0 1-.652-.293A1.044 1.044 0 0 1 232 23c0-.265.097-.52.27-.707a.887.887 0 0 1 .652-.293h.156c.245 0 .479.105.652.293.173.187.27.442.27.707 0 .265-.097.52-.27.707a.887.887 0 0 1-.652.293Z" fill="#002B36"/><path opacity=".15" fill-rule="evenodd" clip-rule="evenodd" d="M239 23.972h-3.402a.933.933 0 0 1-.934-.94.934.934 0 0 1 .934-.94h1.701v-9.195h-26.551v9.224h15.411a.933.933 0 0 1 .934.94.934.934 0 0 1-.934.94H209V10.999h30v12.972Z" fill="#002B36"/><path opacity=".15" fill-rule="evenodd" clip-rule="evenodd" d="M230.169 24h-1.338a.769.769 0 0 1-.588-.293A1.116 1.116 0 0 1 228 23c0-.265.088-.52.243-.707a.769.769 0 0 1 .588-.293h1.338c.22 0 .432.105.588.293.155.187.243.442.243.707 0 .265-.088.52-.243.707a.769.769 0 0 1-.588.293ZM216.1 47.98H209V34h21.066c.248 0 .485.107.66.297.176.19.274.447.274.715 0 .269-.098.526-.274.716a.897.897 0 0 1-.66.297h-19.319v9.95h5.4c.247 0 .485.107.66.297.175.19.274.447.274.716 0 .268-.099.526-.274.715a.899.899 0 0 1-.66.297l-.047-.02Z" fill="#002B36"/><path opacity=".15" fill-rule="evenodd" clip-rule="evenodd" d="M222.866 48h-3.732c-.301 0-.589-.105-.802-.293A.943.943 0 0 1 218 47c0-.265.119-.52.332-.707.213-.188.501-.293.802-.293h3.732c.301 0 .589.105.802.293A.943.943 0 0 1 224 47c0 .265-.119.52-.332.707a1.216 1.216 0 0 1-.802.293Z" fill="#002B36"/><path opacity=".15" fill-rule="evenodd" clip-rule="evenodd" d="M225.038 48h-.076a.943.943 0 0 1-.68-.293A1.018 1.018 0 0 1 224 47c0-.265.101-.52.282-.707a.943.943 0 0 1 .68-.293h.076c.255 0 .5.105.68.293.181.187.282.442.282.707 0 .265-.101.52-.282.707a.943.943 0 0 1-.68.293ZM239 48h-11.168a.763.763 0 0 1-.588-.297 1.138 1.138 0 0 1-.244-.718c0-.269.088-.527.244-.717a.763.763 0 0 1 .588-.297h9.654v-9.942h-3.401a.765.765 0 0 1-.588-.297 1.137 1.137 0 0 1-.243-.718c0-.269.087-.527.243-.717a.765.765 0 0 1 .588-.297h4.89L239 48ZM228 35h-30V22h30v13Zm-28.299-1.885h26.589v-9.23h-26.589v9.23Z" fill="#002B36"/><path fill-rule="evenodd" clip-rule="evenodd" d="M73.535 25h128.94c3.603 0 6.525 3.33 6.525 7.421V129H67V32.421c0-4.091 2.922-7.412 6.535-7.421Z" fill="#EAEAEC"/><path clip-rule="evenodd" d="M73.479 25h128.032c3.578 0 6.489 3.33 6.489 7.421V129H67V32.421c0-4.091 2.901-7.412 6.479-7.421v0Z" stroke="#4B4B4D" stroke-width="5.67" stroke-linecap="round" stroke-linejoin="round"/><path d="M199 38H79v80h120V38Z" fill="#fff"/><path opacity=".3" d="M152 105h19" stroke="#fff" stroke-width="3.67" stroke-linecap="round" stroke-linejoin="round"/><path d="M199 38H79v80h120V38Z" stroke="#4B4B4D" stroke-width="5.67" stroke-linecap="round" stroke-linejoin="round"/><path fill-rule="evenodd" clip-rule="evenodd" d="M54.495 129h169.01c.213.019.42.085.61.193.191.108.36.257.498.437.138.181.243.39.309.616.065.226.09.464.073.7v2.324c0 5.406-3.33 9.73-7.439 9.73H60.453c-4.118 0-7.448-4.324-7.448-9.73v-2.324a1.993 1.993 0 0 1 .073-.7 1.87 1.87 0 0 1 .31-.616c.137-.18.306-.329.497-.437.19-.108.397-.174.61-.193Z" fill="#E5E4E4"/><path fill-rule="evenodd" clip-rule="evenodd" d="M217.551 138.196H60.439c-3.69 0-6.816-3.064-7.351-7.196a1.81 1.81 0 0 0-.088.553v2.014c0 4.685 3.33 8.433 7.449 8.433H217.56c4.109 0 7.439-3.748 7.439-8.433v-2.014c0-.188-.03-.374-.088-.553-.535 4.132-3.67 7.196-7.361 7.196Z" fill="#D0D1CF"/><path clip-rule="evenodd" d="M54.495 129h169.01c.213.019.42.085.61.193.191.108.36.257.498.437.138.181.243.39.309.616.065.226.09.464.073.7v2.324c0 5.406-3.33 9.73-7.439 9.73H60.453c-4.118 0-7.448-4.324-7.448-9.73v-2.324a1.993 1.993 0 0 1 .073-.7 1.87 1.87 0 0 1 .31-.616c.137-.18.306-.329.497-.437.19-.108.397-.174.61-.193Z" stroke="#4B4B4D" stroke-width="5.67" stroke-linecap="round" stroke-linejoin="round"/><path fill-rule="evenodd" clip-rule="evenodd" d="M123.01 129h31.98c.068 1.224-.214 2.436-.783 3.372-.57.936-1.381 1.521-2.257 1.628h-25.9c-.876-.107-1.687-.692-2.257-1.628-.569-.936-.851-2.148-.783-3.372Z" fill="#626567"/><path clip-rule="evenodd" d="M123.01 129h31.98c.068 1.224-.214 2.436-.783 3.372-.57.936-1.381 1.521-2.257 1.628h-25.9c-.876-.107-1.687-.692-2.257-1.628-.569-.936-.851-2.148-.783-3.372v0Z" stroke="#4B4B4D" stroke-width="2.45" stroke-linecap="round" stroke-linejoin="round"/><path fill-rule="evenodd" clip-rule="evenodd" d="M140.958 31.5a2.996 2.996 0 0 0-1.694-3.221 3.003 3.003 0 0 0-4.158 1.93c-.115.42-.137.861-.064 1.291a2.996 2.996 0 0 0 1.694 3.221 3.003 3.003 0 0 0 4.158-1.93c.115-.42.137-.861.064-1.291Z" fill="#626567"/><path clip-rule="evenodd" d="M140.958 31a2.214 2.214 0 0 0-.064-1.107 2.466 2.466 0 0 0-.602-.981 2.986 2.986 0 0 0-1.028-.673A3.427 3.427 0 0 0 138 28c-.437 0-.868.082-1.264.24a2.986 2.986 0 0 0-1.028.672c-.282.285-.487.62-.602.981-.115.36-.137.738-.064 1.107-.073.369-.051.746.064 1.107.115.36.32.696.602.981.281.286.632.515 1.028.673.396.157.827.239 1.264.239.437 0 .868-.082 1.264-.24a2.986 2.986 0 0 0 1.028-.672c.282-.285.487-.62.602-.981.115-.36.137-.738.064-1.107Z" stroke="#4B4B4D" stroke-width="2.45" stroke-linecap="round" stroke-linejoin="round"/><path d="M60 145h199M19 145h37M6 145h8" stroke="#4B4B4D" stroke-width="3.67" stroke-linecap="round" stroke-linejoin="round"/><path fill-rule="evenodd" clip-rule="evenodd" d="M122.099 85.59c-.185.578-.632.643-1.274.643-2.258 0-12.649.103-13.126 0-.866-.251-.604-1.77-.604-3.252 0-1.864-.097-11.182 0-11.64.244-.838 1.888-.586 3.172-.586 1.693 0 10.908-.075 11.248 0 .818.289.574 1.966.574 3.252 0 1.752.078 11.183 0 11.583h.01Zm5.741-1.37c.37.187 1.245 3.076 1.44 3.653l1.382 3.728c.068.074.593.121.973.438.213.187.371.424.459.688.088.264.103.545.043.816-.06.27-.192.522-.385.729a1.667 1.667 0 0 1-.711.45c-.3.057-.611.03-.896-.077a1.6 1.6 0 0 1-.711-.527 1.478 1.478 0 0 1-.105-1.65c.184-.364.476-.466.681-.718l-2.404-6.896h-4.728c-.117.932 0 1.258-.623 1.724-.623.466-1.275.252-2.063.354v4.296c.352.057.674.223.917.473a1.502 1.502 0 0 1 .193 1.881c-.188.291-.471.514-.804.635-.334.122-.7.135-1.041.037a1.629 1.629 0 0 1-.851-.577 1.51 1.51 0 0 1 .049-1.89c.224-.326.418-.354.846-.568v-4.277a24.864 24.864 0 0 0-3.036-.047v10.11c0 3.542-.194 5.275 2.336 7.679a6.338 6.338 0 0 0 3.559 1.49 6.43 6.43 0 0 0 3.787-.828 6.903 6.903 0 0 0 2.012-1.878 6.599 6.599 0 0 0 1.082-2.483c.146-.708.088-1.864.233-2.32 1.071-.243 2.141.438 4.632-.849a7.15 7.15 0 0 0 2.919-2.795 7.91 7.91 0 0 0 1.131-3.956 7.898 7.898 0 0 0-1.014-3.984c-.711-1.258-.827-.932.593-1.537a7.898 7.898 0 0 0 2.822-2.153 8.077 8.077 0 0 0 1.712-4.836 7.578 7.578 0 0 0-1.176-4.145 8.05 8.05 0 0 0-3.28-2.928 10.58 10.58 0 0 1-1.168-.476c-.077-.54.448-.931.886-1.984a7.65 7.65 0 0 0 .202-5.486c-.613-1.793-1.871-3.32-3.549-4.309-2.637-1.407-4.349-.68-4.671-.931-.321-.252.545-4.203-3.327-6.626a6.373 6.373 0 0 0-3.787-.895 6.303 6.303 0 0 0-3.589 1.463c-2.598 2.405-2.383 4.26-2.383 7.633v10.138c1.01.062 2.024.062 3.035 0v-5.246c.37-.364 3.114-1.985 3.892-2.516l.623-.401.331-.214.156-.093.184-.15c-.749-2.413 1.606-2.749 2.413-1.863.185.2.315.441.379.702.064.26.059.531-.013.79-.072.258-.21.495-.401.69-.191.195-.43.342-.694.427-.594.13-.808-.084-1.265-.168a8.296 8.296 0 0 1-1.168.783l-3.765 2.386v4.845c1.051.13 1.683-.149 2.306.587.622.737.253 1.575.389 2.535h5.507l2.335-3.951c-1.177-1.994 1.148-3.523 2.374-1.976.111.146.19.31.234.485.103.354.078.732-.072 1.07a1.654 1.654 0 0 1-.755.794c-.467.214-.788.074-1.255 0l-1.849 3.177c-.185.317-.438.876-.73.998h-5.838v2.795a.371.371 0 0 0 .068.186h10.83c.272-.083.048-.4.467-.987a1.51 1.51 0 0 1 .68-.461c.268-.09.556-.105.832-.045.276.06.529.194.73.386.2.191.341.433.404.698.099.37.055.763-.124 1.105-.179.342-.48.611-.849.758-1.313.392-1.586-.736-1.946-.801h-11.063v3.671c.351.094 8.096.103 8.689 0 .282-.596.594-1.276 1.635-1.183 1.771.158 1.81 2.898.058 3.094-1.089.12-1.401-.606-1.693-1.156h-8.65a8.626 8.626 0 0 0 0 2.293h5.031l-.039.167Zm-25.045-23.297a1.629 1.629 0 0 1-.975-.608 1.507 1.507 0 0 1 .229-2.07c.298-.257.685-.4 1.086-.4.402 0 .789.143 1.087.4.298.257.487.61.529.993.043.382-.064.766-.3 1.077a1.631 1.631 0 0 1-.975.608v5.787c1.265.755 2.666 1.445 3.999 2.2 2.666 1.537 1.781 1.118 5.128 1.118V59.86c0-3.401.223-5.228-2.374-7.641a6.36 6.36 0 0 0-3.576-1.457 6.434 6.434 0 0 0-3.78.86 6.745 6.745 0 0 0-2.374 2.572c-.974 1.762-.633 3.346-.866 4.082-1.158.26-2.044-.466-4.69.876a7.341 7.341 0 0 0-2.92 2.796 8.006 8.006 0 0 0-1.07 4.659c.062.792.246 1.57.545 2.311.37.867 1.041 1.659.973 1.948-.068.288-1.352.55-2.189 1.118a7.988 7.988 0 0 0-1.703 1.537 8.206 8.206 0 0 0-1.216 2.125 7.69 7.69 0 0 0-.451 4.001 7.832 7.832 0 0 0 1.638 3.706 7.73 7.73 0 0 0 2.802 2.171c.38.124.751.274 1.11.447.068.513-.224.69-.438 1.081-2.744 4.958.262 10.586 5.04 11.472 2.685.503 2.637-.709 2.685 1.202a6.604 6.604 0 0 0 .878 3.175 6.955 6.955 0 0 0 2.323 2.416 6.444 6.444 0 0 0 3.781.861 6.36 6.36 0 0 0 3.575-1.457c2.618-2.433 2.374-4.287 2.374-7.716V86.942h-4.164c-1.858 0-1.946-.718-2.043-2.05h-3.737v9.16c.39.038.753.21 1.022.482.269.273.426.63.444 1.004.018.375-.106.744-.348 1.039a1.646 1.646 0 0 1-.972.569 1.55 1.55 0 0 1-1.06-.248 1.43 1.43 0 0 1-.603-.87c-.351-1.361.788-1.715.846-1.986v-9.617c.136-.475 3.513-.233 4.388-.233v-2.469a41.442 41.442 0 0 0-6.597.186c-.35.522-.642.932-.973 1.445-.33.512-.749.932-.973 1.407 1.022 2.18-1.303 3.112-2.276 2.18a1.536 1.536 0 0 1-.562-.909 1.49 1.49 0 0 1 .179-1.043c.185-.316.481-.56.836-.69a1.682 1.682 0 0 1 1.103-.013l1.353-1.864c1.09-1.51.74-1.286 1.79-1.351a36.445 36.445 0 0 1 6.052-.084v-2.898H92.461c-.243.466-.505 1.398-1.692 1.23a1.58 1.58 0 0 1-.949-.536 1.46 1.46 0 0 1-.346-1.002 1.396 1.396 0 0 1 .195-.809c.146-.245.365-.444.627-.572a1.566 1.566 0 0 1 1.65.179c.389.373.263.382.545.867h13.943V73.81h-7.58c-.662 0-1.82.159-2.277-.223v-4.986a1.63 1.63 0 0 1-.925-.666 1.512 1.512 0 0 1-.233-1.086c.012-.38.181-.741.47-1.002.29-.261.675-.402 1.073-.39a1.53 1.53 0 0 1 1.046.449c.273.277.42.647.408 1.027.042.404-.08.807-.34 1.128-.467.503-.75.4-.818.643v4.407h9.127c0-2.059-.224-2.637 1.518-3.15l-4.485-2.506c-.691-.345-.623-.27-.613-1.165v-5.358l-.01-.01Zm-3.892-3.41a9.58 9.58 0 0 0-3.766.699c-1.803.83-3.251 2.232-4.096 3.97a8.813 8.813 0 0 0-.438 6.523c.195.633.7 1.407.827 1.863a9.968 9.968 0 0 0-2.13 1.184 8.528 8.528 0 0 0-2.458 2.99 8.162 8.162 0 0 0-.841 3.72c.004.95.168 1.894.486 2.795.628 1.91 1.96 3.536 3.746 4.575.376.225.777.407 1.197.541-.302 1.146-1.245 1.351-1.245 5.06a7.555 7.555 0 0 0 1.148 3.895 9.054 9.054 0 0 0 2.413 2.656 8.36 8.36 0 0 0 5.186 1.482 8.078 8.078 0 0 0 .623 3.047 7.46 7.46 0 0 0 1.946 2.675c.313.299.663.562 1.041.782.976.61 2.102.962 3.266 1.021a6.86 6.86 0 0 0 3.36-.685 4.684 4.684 0 0 0 1.177-.708l1.44-1.417c.107-.121.098-.14.205-.27a7.717 7.717 0 0 0 1.352-4.855V86.942h2.345v12.114a8.283 8.283 0 0 0 1.158 4.51l.808 1.1a7.117 7.117 0 0 0 2.169 1.621 7.312 7.312 0 0 0 4.632.541 6.326 6.326 0 0 0 2.491-1.128 7.964 7.964 0 0 0 2.327-2.769 7.62 7.62 0 0 0 .825-3.465 8.467 8.467 0 0 0 4.408-.997 9.265 9.265 0 0 0 1.761-1.314c1.559-1.514 2.468-3.532 2.549-5.657 0-3.727-.973-3.895-1.245-5.06a9.978 9.978 0 0 0 2.131-1.183 8.529 8.529 0 0 0 2.457-2.99 8.158 8.158 0 0 0 .841-3.72 14.147 14.147 0 0 0-.136-1.51 9.526 9.526 0 0 0-2.004-4.202l-.633-.624a7.707 7.707 0 0 0-2.656-1.613c.123-.293.262-.579.418-.857.161-.298.291-.61.389-.932a8.738 8.738 0 0 0 .363-3.97 8.874 8.874 0 0 0-1.443-3.737l-.447-.587c-.146-.177-.331-.344-.506-.521a8.208 8.208 0 0 0-3.736-2.228 10.858 10.858 0 0 0-2.491-.242 7.578 7.578 0 0 0-.795-3.42 7.918 7.918 0 0 0-2.27-2.749 6.2 6.2 0 0 0-.516-.345 5.59 5.59 0 0 0-.603-.345 7.147 7.147 0 0 0-4.678-.465 6.885 6.885 0 0 0-3.894 2.525 4.88 4.88 0 0 0-.409.54 5.882 5.882 0 0 0-.36.597 7.725 7.725 0 0 0-.885 3.904v12.227h-2.365V57.932a7.884 7.884 0 0 0-1.537-5.088 2.932 2.932 0 0 1-.214-.252 6.14 6.14 0 0 0-1.217-1.164l-1.118-.736a7.154 7.154 0 0 0-2.985-.687 7.15 7.15 0 0 0-2.999.621l-1.149.662a7.47 7.47 0 0 0-2.753 3.727c-.078.252-.127.466-.195.764a9.845 9.845 0 0 0-.243 1.743l-.03-.01Z" fill="#30B3E7" stroke="#30B3E7" stroke-width="2.83" stroke-miterlimit="22.93"/><path fill-rule="evenodd" clip-rule="evenodd" d="M111.302 74.938a5.324 5.324 0 0 1 2.447 0c.083.572-.195.427-1.214.427-1.02 0-1.307.145-1.233-.446v.019Zm-.778-1.832c-.603.29-.51.785-.51 1.648 0 1.134-.056 6.234.056 6.631.194.67.75.602 1.455.602.926 0 5.681.058 5.968-.068.538-.233.482-.97.482-1.668 0-1.076.056-6.34 0-6.651-.213-.66-.806-.582-1.473-.582-1.02 0-5.654-.077-5.978.088Z" fill="#414042"/><path fill-rule="evenodd" clip-rule="evenodd" d="M111.162 73.667c.369-.161 5.465-.085 6.562-.085.738 0 1.394-.076 1.63.57.113.304 0 5.464 0 6.519 0 .712.061 1.406-.533 1.634-.318.124-5.547.067-6.603.067-.779 0-1.394.066-1.609-.59-.124-.389-.062-5.388-.062-6.5 0-.845-.103-1.33.564-1.615h.051Zm9.802 9.779c.082-.266 0-7.603 0-8.904 0-.95.194-2.272-.452-2.5-.276-.095-7.597 0-8.94 0-1.025 0-2.327-.19-2.522.456-.113.38 0 7.527 0 8.952 0 1.14-.205 2.31.472 2.5.42.113 8.643 0 10.437 0 .502 0 .851-.048 1.005-.504Z" fill="#fff"/><path fill-rule="evenodd" clip-rule="evenodd" d="M111.015 74.223c-.09.993.191.75 1.494.75s1.573.243 1.472-.717a4.715 4.715 0 0 0-2.966-.033Z" fill="#E59A24"/><path opacity=".6" fill-rule="evenodd" clip-rule="evenodd" d="M155 53v47.261a3.03 3.03 0 0 0 1.102 2.044c.626.51 1.431.756 2.24.682h78.292a3.106 3.106 0 0 0 2.218-.696 3.035 3.035 0 0 0 1.095-2.03V56.622a2.95 2.95 0 0 0-.234-1.826 2.995 2.995 0 0 0-1.275-1.343L155 53Z" fill="#C6C8C8" stroke="#C6C8C8" stroke-width="2.45" stroke-linecap="round" stroke-linejoin="round"/><path fill-rule="evenodd" clip-rule="evenodd" d="M233.765 98h-76.53c-1.774 0-3.235-.983-3.235-2.187V55.196c0-1.204 1.461-2.196 3.235-2.196h76.53c1.783 0 3.235.992 3.235 2.196v40.635c0 1.213-1.48 2.169-3.235 2.169Z" fill="#fff"/><path fill-rule="evenodd" clip-rule="evenodd" d="M237 65h-84v-7.88c0-2.265 1.479-4.12 3.274-4.12h77.442c1.805 0 3.284 1.855 3.284 4.12V65Z" fill="#B2B4B5"/><path fill-rule="evenodd" clip-rule="evenodd" d="M162.998 59.688a2.325 2.325 0 0 0-.363-1.017 1.524 1.524 0 0 0-.719-.596 1.154 1.154 0 0 0-.848.012 1.552 1.552 0 0 0-.709.618 2.345 2.345 0 0 0-.345 1.027c-.039.38.005.765.127 1.112.122.347.316.64.56.845.243.205.526.313.815.311.423-.061.812-.335 1.088-.765.275-.43.416-.984.394-1.547ZM169.997 59.688a1.86 1.86 0 0 0-.603-1.016 2.667 2.667 0 0 0-1.197-.597 3.137 3.137 0 0 0-1.412.01c-.459.112-.87.325-1.182.615a1.84 1.84 0 0 0-.579 1.025c-.066.378.005.764.206 1.111.201.347.523.642.927.848.405.206.875.316 1.355.316.706-.061 1.357-.334 1.819-.764.461-.43.7-.983.666-1.548ZM175.997 59.688a1.996 1.996 0 0 0-1.439-1.613 2.024 2.024 0 0 0-2.075.625 1.995 1.995 0 0 0 .443 2.984c.323.206.699.316 1.084.316a2.233 2.233 0 0 0 1.454-.764c.37-.43.56-.983.533-1.548Z" fill="#414042"/><path clip-rule="evenodd" d="M233.765 98h-76.53c-1.774 0-3.235-.983-3.235-2.187V55.196c0-1.204 1.461-2.196 3.235-2.196h76.53c1.783 0 3.235.992 3.235 2.196v40.635c0 1.213-1.48 2.169-3.235 2.169Z" stroke="#4B4B4D" stroke-width="4.25" stroke-linecap="round" stroke-linejoin="round"/><path d="M160 72h20" stroke="#D0CFCE" stroke-width="3.69" stroke-miterlimit="22.93" stroke-linecap="round"/><path d="M184 72h13" stroke="#30B3E7" stroke-width="3.69" stroke-miterlimit="22.93" stroke-linecap="round"/><path d="M203 72h28" stroke="#D0CFCE" stroke-width="3.69" stroke-miterlimit="22.93" stroke-linecap="round"/><path d="M160 81h8" stroke="#E59A24" stroke-width="3.69" stroke-miterlimit="22.93" stroke-linecap="round"/><path d="M176 81h8M189 81h23" stroke="#D0CFCE" stroke-width="3.69" stroke-miterlimit="22.93" stroke-linecap="round"/><path fill-rule="evenodd" clip-rule="evenodd" d="M96.282 69.064c.438.032.876-.065 1.257-.28.38-.216.687-.538.878-.926a2.106 2.106 0 0 0-.364-2.389 2.199 2.199 0 0 0-1.116-.633 2.23 2.23 0 0 0-1.286.091c-.41.157-.761.43-1.01.786a2.115 2.115 0 0 0-.383 1.206 2.054 2.054 0 0 0 .562 1.48c.38.401.904.64 1.462.665ZM102.006 98.05c.438.032.877-.065 1.258-.28.381-.216.687-.54.878-.928.191-.388.258-.824.192-1.25a2.125 2.125 0 0 0-.56-1.14 2.201 2.201 0 0 0-1.118-.631 2.23 2.23 0 0 0-1.287.095c-.41.158-.761.434-1.009.79a2.117 2.117 0 0 0-.378 1.21 2.05 2.05 0 0 0 .56 1.479 2.103 2.103 0 0 0 1.464.655ZM132.336 83.722c.439.032.877-.066 1.259-.281.381-.216.687-.539.878-.927.19-.388.257-.824.192-1.25a2.126 2.126 0 0 0-.561-1.14 2.197 2.197 0 0 0-1.118-.631 2.23 2.23 0 0 0-1.287.095c-.41.158-.761.433-1.008.79-.248.356-.38.778-.379 1.209a2.046 2.046 0 0 0 .563 1.476c.379.4.904.637 1.461.659ZM125.325 62.27c.439.032.877-.066 1.258-.281.381-.215.687-.539.878-.927.191-.389.258-.824.192-1.25a2.125 2.125 0 0 0-.56-1.14 2.201 2.201 0 0 0-1.118-.632 2.231 2.231 0 0 0-1.287.096c-.41.158-.761.433-1.009.79a2.114 2.114 0 0 0-.378 1.209 2.042 2.042 0 0 0 .563 1.476c.379.4.904.637 1.461.659Z" fill="#30B3E7" stroke="#30B3E7" stroke-width=".57" stroke-miterlimit="22.93"/><path clip-rule="evenodd" d="M200.989 9.5a3.025 3.025 0 0 0-.181-1.318 3.203 3.203 0 0 0-.737-1.14 3.507 3.507 0 0 0-1.168-.77A3.735 3.735 0 0 0 197.5 6c-.483 0-.961.093-1.403.272-.443.18-.84.442-1.168.77a3.203 3.203 0 0 0-.737 1.14 3.025 3.025 0 0 0-.181 1.318c-.038.446.023.895.181 1.318.158.423.409.81.737 1.14.328.328.725.59 1.168.77.442.18.92.272 1.403.272s.961-.093 1.403-.272c.443-.18.84-.442 1.168-.77.328-.33.579-.717.737-1.14.158-.423.219-.872.181-1.318Z" stroke="#E59A24" stroke-width="4.12" stroke-miterlimit="22.93"/><path fill-rule="evenodd" clip-rule="evenodd" d="M243.999 33.386a1.5 1.5 0 0 0-1.862-1.341 1.5 1.5 0 0 0 .369 2.955 1.564 1.564 0 0 0 1.493-1.614Z" fill="#30B3E7"/><path d="M241 118a3 3 0 1 0 0-6 3 3 0 0 0 0 6Z" stroke="#30B3E7" stroke-width="4.12" stroke-miterlimit="22.93"/><path fill-rule="evenodd" clip-rule="evenodd" d="M249.999 122.387a1.494 1.494 0 0 0-1.001-1.303 1.507 1.507 0 0 0-1.596.395 1.49 1.49 0 0 0-.38.768 1.492 1.492 0 0 0 .654 1.506c.244.16.529.246.821.247a1.567 1.567 0 0 0 1.502-1.613Z" fill="#B2B4B5"/><path clip-rule="evenodd" d="M57 47.469A2.5 2.5 0 1 0 54.5 50a2.513 2.513 0 0 0 2.5-2.531Z" stroke="#E59A24" stroke-width="2.83" stroke-miterlimit="22.93"/><path fill-rule="evenodd" clip-rule="evenodd" d="M61.236 98H26.764C24.684 98 23 96.206 23 93.996 23 91.786 24.684 90 26.763 90h34.474C63.325 90 65 91.785 65 93.996c.01 2.21-1.637 4.004-3.764 4.004Z" fill="#54BC81"/><path d="m45 83-2.873-16.798L27 62" stroke="#4B4B4D" stroke-width="4.9" stroke-linecap="round" stroke-linejoin="round"/><path fill-rule="evenodd" clip-rule="evenodd" d="M34.648 142.952h18.704a2.858 2.858 0 0 0 1.84-.866 2.883 2.883 0 0 0 .805-1.875L61 94H27l5.003 46.259c.03.703.317 1.369.804 1.874a2.86 2.86 0 0 0 1.84.867v-.048Z" fill="#fff"/><path fill-rule="evenodd" clip-rule="evenodd" d="m32.197 94 3.958 42.723c.021.814.342 1.59.9 2.18.559.589 1.315.95 2.123 1.011H56v.345a2.88 2.88 0 0 1-.803 1.874 2.855 2.855 0 0 1-1.839.867h-18.72a2.855 2.855 0 0 1-1.838-.867 2.88 2.88 0 0 1-.803-1.874L27 94h5.197Z" fill="#DADFE6"/><path clip-rule="evenodd" d="M34.648 142.952h18.704a2.86 2.86 0 0 0 1.859-.857 2.883 2.883 0 0 0 .815-1.884L61 94H27l5.003 46.259c.03.703.317 1.369.804 1.874a2.86 2.86 0 0 0 1.84.867v-.048Z" stroke="#4B4B4D" stroke-width="4.25" stroke-linecap="round" stroke-linejoin="round"/><path fill-rule="evenodd" clip-rule="evenodd" d="M29 90h30l-.601-5H29.592L29 90Z" fill="#E59A24"/><path fill-rule="evenodd" clip-rule="evenodd" d="M29.567 85H38l-1.998 5H29l.567-5Z" fill="#ECB75B"/><path clip-rule="evenodd" d="M29 90h30l-.601-5H29.592L29 90Z" stroke="#4B4B4D" stroke-width="4.25" stroke-linecap="round" stroke-linejoin="round"/><path fill-rule="evenodd" clip-rule="evenodd" d="m59.732 130.024 2.46-22.147h-36.78l2.45 22.147h31.87Z" fill="#54BC81"/><path fill-rule="evenodd" clip-rule="evenodd" d="m59.732 130.024 2.46-22.147h-36.78l2.45 22.147h31.87Z" fill="#ECB75B"/><path fill-rule="evenodd" clip-rule="evenodd" d="m59.586 127.462 2.053-19.585H30.796l1.937 18.029c.01.398.172.777.453 1.065a1.65 1.65 0 0 0 1.067.491h25.333Z" fill="#E59A24"/><path clip-rule="evenodd" d="m59.673 130.024 2.45-22.147h-36.78l2.45 22.147h31.88Z" stroke="#4B4B4D" stroke-width="4.25" stroke-linecap="round" stroke-linejoin="round"/><path d="m32.558 121.057.775-.864a14.616 14.616 0 0 0 4.752 3.131 14.867 14.867 0 0 0 11.23 0 14.618 14.618 0 0 0 4.752-3.131l.968 1.082M40.577 114.984a1.754 1.754 0 0 0-.43-1.283 1.826 1.826 0 0 0-1.226-.615 1.823 1.823 0 0 0-1.22.618 1.753 1.753 0 0 0-.427 1.28v1.746M47.017 114.984c-.035-.466.12-.927.43-1.283.31-.355.75-.576 1.225-.615.474.041.913.263 1.22.618.309.356.462.815.427 1.28v1.746" stroke="#4B4B4D" stroke-width="4.25" stroke-linecap="round" stroke-linejoin="round"/><path fill-rule="evenodd" clip-rule="evenodd" d="M61.236 98H26.764C24.684 98 23 96.206 23 93.996 23 91.786 24.684 90 26.763 90h34.474C63.325 90 65 91.785 65 93.996c.01 2.21-1.637 4.004-3.764 4.004Z" fill="#ECB75B"/><path fill-rule="evenodd" clip-rule="evenodd" d="M62.06 96H30.94c-.841-.066-1.62-.415-2.167-.973-.548-.558-.821-1.28-.761-2.01-.073-.737.195-1.469.744-2.034.55-.566 1.335-.92 2.184-.983h31.12c.843.064 1.623.413 2.17.971.549.559.821 1.282.76 2.013.069.736-.2 1.466-.748 2.031-.549.565-1.333.92-2.181.985Z" fill="#E59A24"/><path clip-rule="evenodd" d="M62.148 98H26.852C24.724 98 23 96.206 23 93.996 23 91.794 24.724 90 26.852 90h35.296C64.276 90 66 91.794 66 93.996 66 96.206 64.276 98 62.148 98Z" stroke="#4B4B4D" stroke-width="4.25" stroke-linecap="round" stroke-linejoin="round"/><path fill-rule="evenodd" clip-rule="evenodd" d="M46.999 51.387a1.498 1.498 0 0 0-1.004-1.303 1.503 1.503 0 0 0-1.974 1.168A1.498 1.498 0 0 0 45.507 53a1.559 1.559 0 0 0 1.492-1.613Z" fill="#B2B4B5"/></svg>