<svg width="273" height="148" fill="none" xmlns="http://www.w3.org/2000/svg"><path fill-rule="evenodd" clip-rule="evenodd" d="M167.937 59.737h.748V45.18h-.776c-2.555 0-4.647 1.497-4.647 3.324v7.927c.029 1.808 2.12 3.305 4.675 3.305Z" fill="#FDD6C1" stroke="#3F4042" stroke-width="2.3" stroke-linecap="round" stroke-linejoin="round"/><path d="M98.41 127.09v10.836" stroke="#3F4042" stroke-width="3.11" stroke-linecap="round" stroke-linejoin="round"/><path fill-rule="evenodd" clip-rule="evenodd" d="M106.889 58.541h-.776v-14.97h.776c2.565 0 4.656 1.535 4.656 3.418v8.134c0 1.874-2.091 3.418-4.656 3.418Z" fill="#DCB69D" stroke="#3F4042" stroke-width="3.11" stroke-linecap="round" stroke-linejoin="round"/><path fill-rule="evenodd" clip-rule="evenodd" d="M248.793 89.506c.302 5.188-93.48 6.77-92.817-2.034l4.05-53.748h85.511l3.256 55.782Z" fill="#FDD6C1" stroke="#3F4042" stroke-width="2.45" stroke-miterlimit="22.93"/><path fill-rule="evenodd" clip-rule="evenodd" d="M232.09 97.631h-10.505a9.754 9.754 0 0 1-3.255-.546c-2.385-.847-4.022-2.608-4.022-4.65V82.68c16.249-3.2 28.201-13.849 28.201-26.474V41.472c.114-.941.255-4.255.293-7.748-13.097-26.672-73.625-23.132-80.088 0a55.861 55.861 0 0 0 .104 9.254V56.16c0 12.24 11.223 22.595 26.705 26.154v10.074c0 2.871-3.255 5.197-7.277 5.197h-10.533c-15.416 0-22.589 8.144-27.888 19.837l-5.811 16.372 124.188 1.591-1.05-18.217c-2.309-11.072-13.665-19.536-29.062-19.536Z" fill="#FDD6C1" stroke="#3F4042" stroke-width="2.3" stroke-linecap="round" stroke-linejoin="round"/><path fill-rule="evenodd" clip-rule="evenodd" d="m184.896 102.546 5.479 7.72 5.479 7.72-6.283 2.184-6.284 2.184.804-9.904.805-9.904ZM221.037 101.501l-5.839 8.228-5.839 8.219 6.7 2.326 6.69 2.334-.861-10.554-.851-10.553ZM196.858 119.784l3.037 4.397 3.029 4.387h-12.142l3.038-4.387 3.038-4.397Z" fill="#E59A24"/><path fill-rule="evenodd" clip-rule="evenodd" d="m208.904 119.812 3.038 4.387 3.038 4.388h-12.151l3.038-4.388 3.037-4.387Z" fill="#E59A24"/><path fill-rule="evenodd" clip-rule="evenodd" d="M222.626 97.584h9.833c15.368 0 26.961 8.991 29.033 19.658l.748 18.189-123.885-1.563 5.81-16.372c3.786-10.008 12.473-19.912 27.889-19.912h10.533c.265 0 .738.32 1.012.292l39.027-.292Zm-38.648 2.42-.464 10.902-.539 10.243c-.085 1.742 4.731-.216 6.946-.838l6.624-1.883-6.406-9.415-6.161-9.038v.029Zm24.813 18.961-3.227 4.801-2.886 3.983-2.679-3.87-3.075-4.801-3.076 4.801-2.924 3.766c-1.221 1.591 4.012 1.111 6 .998l5.772-.113h12.095c1.94 0-1.59-3.427-2.612-5.027l-3.388-4.576v.038Zm13.069-18.83-6.416 9.114-6.407 9.415 6.624 1.883c2.101.687 7.069 3.285 6.946 1.054l-.577-10.563-.17-10.903Z" fill="#F6B850"/><path clip-rule="evenodd" d="M222.626 97.584h9.833c15.368 0 26.961 8.991 29.033 19.658l.748 17.568-123.885-.942 5.81-16.372c3.786-10.008 12.473-19.912 27.889-19.912h10.533c.265 0 .738.32 1.012.292l39.027-.292Zm-38.648 2.42 6.161 9.038 6.406 9.414-6.624 1.883c-2.205.622-7.031 2.58-6.946.838l.539-10.243.464-10.902v-.028Zm24.813 18.961 3.388 4.575c1.022 1.601 4.552 5.028 2.612 5.028h-12.132l-5.773.113c-1.987.113-7.221.593-6-.998l2.924-3.766 3.076-4.801 3.076 4.801 2.678 3.87 2.886-3.983 3.227-4.801.038-.038Zm13.069-18.83-6.416 9.114-6.407 9.415 6.624 1.883c2.101.687 7.069 3.285 6.946 1.054l-.577-10.563-.17-10.903Z" stroke="#3F4042" stroke-width="2.3" stroke-miterlimit="16.38" stroke-linecap="round"/><path d="M167.795 123.202v10.535" stroke="#3F4042" stroke-width="2.3" stroke-linecap="round" stroke-linejoin="round"/><path fill-rule="evenodd" clip-rule="evenodd" d="m202.753 127.344 10.249-15.064c2.934-4.33 9.795-12.502 8.602-14.64-.189-.348-3.246.066-3.899.047l-16.087-.555c-5.395 0-14.195.49-16.088.734-.66.015-1.32-.007-1.978-.066l8.943 14.48 10.258 15.064Z" fill="#FDD6C1"/><path d="m182.114 97.772.615.904 9.633 14.169 10.249 15.083.615-.904 9.634-14.179 9.577-14.094" stroke="#3F4042" stroke-width="2.45" stroke-miterlimit="16.38" stroke-linecap="round"/><path d="M235.752 123.202v10.535" stroke="#3F4042" stroke-width="2.3" stroke-linecap="round" stroke-linejoin="round"/><path fill-rule="evenodd" clip-rule="evenodd" d="m190.621 84.15 22.485-.067-22.485.066Zm22.485-.067h1.079c0 2.448-.218 8.172.388 9.952l1.703 3.766c.218 1.995-29.137 2.523-28.57.48.218-.791 1.524-3.766 1.609-6.214l.265-7.88h1.041l22.485-.104Z" fill="#FDD6C1"/><path clip-rule="evenodd" d="m190.621 84.15 22.485-.067-22.485.066Zm22.485-.067h1.079c0 2.448-.218 8.172.388 9.952l1.703 3.766c.218 1.995-29.137 2.523-28.57.48.218-.791 1.524-3.766 1.609-6.214l.265-7.88h1.041l22.485-.104Z" stroke="#FDD6C1" stroke-width=".57" stroke-miterlimit="22.93"/><path d="M213.343 84.356h1.088c0 1.808-.151 8.68.388 9.697.653 1.224 1.325 3.531 6.284 3.635h.946M182.7 98.722c.227-.188 3.208-1.101 3.577-1.318a7.54 7.54 0 0 0 2.263-2.459c.56-.977.893-2.067.974-3.19l.057-5.96v-2.673" stroke="#3F4042" stroke-width="2.45" stroke-miterlimit="22.93"/><path fill-rule="evenodd" clip-rule="evenodd" d="M161.597 55.726h.776V41.18h-.776c-2.555 0-4.647 1.488-4.647 3.314v7.909c0 1.826 2.092 3.323 4.647 3.323ZM243.663 55.726h-.776V41.18h.776c2.556 0 4.647 1.488 4.647 3.314v7.909c0 1.826-2.091 3.323-4.647 3.323Z" fill="#FDD6C1" stroke="#3F4042" stroke-width="2.3" stroke-linecap="round" stroke-linejoin="round"/><path fill-rule="evenodd" clip-rule="evenodd" d="M202.753 3.286c23.659 0 42.794 12.578 42.794 28.103v1.195h-17.981l-3.482-7.87-2.839 7.87h-3.35l-1.827-10.12-5.138 10.12h-21.567l-5.328-5.29-1.477 5.29h-5.678l-.738-9.235-3.785 9.235H159.95V31.39c-.038-15.525 19.145-28.103 42.803-28.103Z" fill="#FDD6C1" stroke="#3F4042" stroke-width="2.45" stroke-miterlimit="22.93"/><path fill-rule="evenodd" clip-rule="evenodd" d="m260.48 120.001.615 13.736h-3.946l-.454-13.03c-2.045-10.074-13.495-18.557-28.684-18.557l-5.053.283a17.724 17.724 0 0 1 0-2.439c.132-.481.332-.94.596-1.365.568 0 5.678-.367 8.157-.367 15.189 0 26.971 9.255 28.722 19.328l.047 2.411ZM149.616 109.55a26.737 26.737 0 0 1 9.761-8.411 26.888 26.888 0 0 1 12.582-2.887h11.205a18.812 18.812 0 0 0-.426 3.625c-.189 0-3.785.283-4.041.283h-10.409c-8.281-.01-13.997 3.332-18.643 7.39h-.029Z" fill="#E59A24"/><path fill-rule="evenodd" clip-rule="evenodd" d="M99.962 96.464H89.41c-4.031 0-7.287-2.392-7.287-5.348V81.089c16.277-3.304 28.249-14.254 28.249-27.237V38.695c.246-2.1.624-14.989-.209-17.662-2.082-6.59-4.201-7.448-6.085-9.415C90.177-.198 51.131 2.09 40.834 8.737c-5.223 2.984-9.009 9.754-10.324 19.997-.29 3.817-.29 7.65 0 11.467v13.614c0 12.578 11.242 23.254 26.753 26.907v10.356c0 2.957-3.255 5.348-7.287 5.348H39.453c-15.444 0-22.627 8.379-27.936 20.402l-1.391 15.638 125.153 1.374-6.227-17.276c-2.309-11.401-13.684-20.1-29.09-20.1Z" fill="#DCB69D" stroke="#3F4042" stroke-width="2.3" stroke-linecap="round" stroke-linejoin="round"/><path fill-rule="evenodd" clip-rule="evenodd" d="m128.418 116.988 6.199 17.276-124.671-1.525s-.322-13.736.54-18.208c2.072-10.762 12.87-17.766 28.305-17.766h10.551c.271.014.543.014.814 0 2.839 5.715 10.41 9.819 19.201 9.819 8.792 0 16.296-4.067 19.164-9.79h10.788c15.435-.03 27.037 9.216 29.109 20.194Z" fill="#9DDCF9" stroke="#3F4042" stroke-width="2.33" stroke-miterlimit="22.93"/><path d="M34.664 122.138v10.243" stroke="#3F4042" stroke-width="2.33" stroke-linecap="round" stroke-linejoin="round"/><path d="M102.744 123.079v10.837" stroke="#3F4042" stroke-width="3.11" stroke-linecap="round" stroke-linejoin="round"/><path fill-rule="evenodd" clip-rule="evenodd" d="M29.762 54.55h.757V39.58h-.776c-2.555 0-4.656 1.544-4.656 3.417v8.135c.02 1.864 2.12 3.417 4.675 3.417Z" fill="#DCB69D" stroke="#3F4042" stroke-width="2.3" stroke-linecap="round" stroke-linejoin="round"/><path fill-rule="evenodd" clip-rule="evenodd" d="M111.223 54.55h-.776V39.58h.776c2.555 0 4.656 1.544 4.656 3.417v8.135c0 1.864-2.082 3.417-4.656 3.417Z" fill="#DCB69D" stroke="#3F4042" stroke-width="3.11" stroke-linecap="round" stroke-linejoin="round"/><path fill-rule="evenodd" clip-rule="evenodd" d="m127.623 116.931 5.678 16.467h-4.665l-4.628-12.484c-2.034-10.272-13.4-18.933-28.494-18.933h-9.757a14.58 14.58 0 0 0 3.322-4.105c.558 0 7.637-.254 10.126-.254 15.065.32 26.384 9.057 28.39 19.328l.028-.019Zm-75.981-15.609c-.265 0-5.678.291-5.915.291H35.582c-8.1 0-17.422 3.766-22.04 7.664 3.899-7.315 15.142-11.975 25.617-11.655l10.202.282" fill="#30B3E7"/><path fill-rule="evenodd" clip-rule="evenodd" d="M157.064 108.571c-2.905 5.79-10.523 9.904-19.391 9.904-8.867 0-16.523-4.142-19.428-9.932 3.691-.283 6.624-2.589 6.624-5.376v-1.007h25.116v1.007c-.028 2.9 3.114 5.291 7.079 5.404Z" fill="#FAE3D6"/><path fill-rule="evenodd" clip-rule="evenodd" d="M179.369 117.929h-85l3.18-9.989c1.646-5.178 10.362-8.944 20.564-8.944h37.513c10.211 0 18.926 3.766 20.563 8.944l3.18 9.989Z" fill="#EAEAEC"/><path fill-rule="evenodd" clip-rule="evenodd" d="M179.615 118.183h-85l3.18-9.97c1.646-5.178 10.362-8.953 20.564-8.953h37.513c10.211 0 18.926 3.766 20.564 8.953l3.179 9.97Z" fill="#EAEAEC" stroke="#3F4042" stroke-width="2.33" stroke-linecap="round" stroke-linejoin="round"/><path fill-rule="evenodd" clip-rule="evenodd" d="M166.489 108.75h-10.466c-4.003 0-7.24-2.401-7.24-5.367V92.086c15.255-3.72 26.28-14.377 26.28-26.926V44.278c1.231-6.59 7.041-26.023-2.261-32.01-1.032-.688-4.07-2.656-6.625-1.94a4.804 4.804 0 0 0-3.094 3.05c-2.839-2.297-10.41-5.074-21.965-8.812-11.895-3.427-14.592-2.824-13.712-1.996.88.829 2.517 2.768.321 3.503-1.703.574-3.7 0-18.926-2.646-.757 1.497 2.545 5.95-4.136 6.45-4.372 4.217-9.416 10.205-10.637 20.486-.463 3.963-1.202 9.16 1.893 15.816v19.056c0 13.096 12.009 24.13 28.305 27.378v10.799c0 2.965-3.237 5.366-7.24 5.366h-10.551c-15.321 0-27.719 9.189-27.719 20.553v16.748h115.52v-16.777c0-11.363-12.463-20.552-27.747-20.552Z" fill="#FAE3D6" stroke="#3F4042" stroke-width="2.33" stroke-linecap="round" stroke-linejoin="round"/><path fill-rule="evenodd" clip-rule="evenodd" d="M196.479 129.199v16.89H78.783v-16.89c0-11.458 12.633-20.713 28.257-20.713h10.637c.275.014.549.014.824 0 2.905 5.79 10.513 9.933 19.428 9.933 8.914 0 16.476-4.114 19.381-9.904h10.911c15.605-.048 28.258 9.226 28.258 20.684Z" fill="#EAEAEC" stroke="#3F4042" stroke-width="2.33" stroke-miterlimit="22.93"/><path d="M155.294 109.352h14.063v7.137c0 8.097-8.981 14.687-20.015 14.687H126.63c-11.025 0-20.015-6.59-20.015-14.687v-7.137h13.863" stroke="#3F4042" stroke-width="2.33" stroke-miterlimit="22.93"/><path d="M149.041 102.621v1.083c0 2.826 3.141 5.157 7.105 5.268-2.905 5.644-10.511 9.654-19.386 9.654-8.874 0-16.509-4.038-19.414-9.682 3.69-.275 6.623-2.524 6.623-5.24v-.918" stroke="#3F4042" stroke-width="2.33" stroke-miterlimit="22.93"/><path d="M117.715 106.858c2.12 6.731 10.325 11.768 20.167 11.768 9.851 0 18.056-5.037 20.176-11.768" stroke="#3F4042" stroke-width="2.33" stroke-linecap="round" stroke-linejoin="round"/><path fill-rule="evenodd" clip-rule="evenodd" d="M126.507 122.335c0-.734-1.41-1.327-3.142-1.327s-3.142.593-3.142 1.327c0 .735 1.41 1.328 3.142 1.328s3.142-.603 3.142-1.328Z" fill="#3F4042" stroke="#3F4042" stroke-width="2.33" stroke-miterlimit="22.93"/><path d="M123.365 122.326v14.998" stroke="#3F4042" stroke-width="2.33" stroke-linecap="round" stroke-linejoin="round"/><path fill-rule="evenodd" clip-rule="evenodd" d="M154.954 122.335c0-.734-1.401-1.327-3.133-1.327s-3.142.593-3.142 1.327c0 .735 1.401 1.328 3.142 1.328 1.741 0 3.133-.603 3.133-1.328Z" fill="#3F4042" stroke="#3F4042" stroke-width="2.33" stroke-miterlimit="22.93"/><path d="M151.821 122.326v10.968" stroke="#3F4042" stroke-width="2.33" stroke-linecap="round" stroke-linejoin="round"/><path fill-rule="evenodd" clip-rule="evenodd" d="M124.5 141.297h-2.347c-1.495 0-2.592-1.008-2.242-2.072l1.022-3.342h4.788l1.022 3.342c.35 1.064-.747 2.072-2.243 2.072Z" fill="#FFF1E4" stroke="#3F4042" stroke-width="2.33" stroke-miterlimit="22.93"/><path fill-rule="evenodd" clip-rule="evenodd" d="M124.5 141.297h-2.347c-1.495 0-2.592-1.008-2.242-2.072l1.022-3.342h4.788l1.022 3.342c.35 1.064-.747 2.072-2.243 2.072Z" fill="#3F4042" stroke="#3F4042" stroke-width="2.33" stroke-linecap="round" stroke-linejoin="round"/><path fill-rule="evenodd" clip-rule="evenodd" d="M152.995 138.585h-2.357c-1.485 0-2.583-1.007-2.233-2.071l1.022-3.333h4.788l1.013 3.333c.36 1.064-.738 2.071-2.233 2.071Z" fill="#FFF1E4" stroke="#3F4042" stroke-width="2.33" stroke-miterlimit="22.93"/><path fill-rule="evenodd" clip-rule="evenodd" d="M152.995 138.585h-2.357c-1.485 0-2.583-1.007-2.233-2.071l1.022-3.333h4.788l1.013 3.333c.36 1.064-.738 2.071-2.233 2.071Z" fill="#3F4042" stroke="#3F4042" stroke-width="2.33" stroke-linecap="round" stroke-linejoin="round"/><path d="M102.725 134.876v10.968M171.6 134.876v10.968" stroke="#3F4042" stroke-width="2.33" stroke-linecap="round" stroke-linejoin="round"/><path fill-rule="evenodd" clip-rule="evenodd" d="M95.382 63.747h.785V48.608h-.785c-2.593 0-4.732 1.554-4.732 3.456v8.228c.019 1.902 2.139 3.455 4.731 3.455ZM175.896 63.747h-.785V48.608h.785c2.584 0 4.732 1.554 4.732 3.456v8.228c-.029 1.902-2.148 3.455-4.732 3.455Z" fill="#FAE3D6" stroke="#3F4042" stroke-width="2.3" stroke-linecap="round" stroke-linejoin="round"/><path fill-rule="evenodd" clip-rule="evenodd" d="m196.015 128.634-.653 16.363h-3.965l.681-11.995c-1.4-10.685-13.248-19.319-28.607-19.319l-9.066.518a18.537 18.537 0 0 0 3.785-4.707c.568 0 7.732-.16 9.009 0 15.397-.405 26.422 7.108 28.873 19.159l-.057-.019Zm-113.21-8.125c3.785-6.12 12.87-10.912 23.762-10.912 3.331-.094 7.088.556 10.306.556 1.486 2.721 2.839 3.295 2.366 3.295-.473 0-5.489.254-5.763.254h-10.543c-8.422-.019-15.397 2.58-20.128 6.807Z" fill="#D1D2D9"/></svg>